<svg width="49" height="49" viewBox="0 0 49 49" fill="none" xmlns="http://www.w3.org/2000/svg">
<path d="M24.5 16.3334C34.6482 16.3334 42.875 13.5911 42.875 10.2084C42.875 6.82563 34.6482 4.08337 24.5 4.08337C14.3518 4.08337 6.125 6.82563 6.125 10.2084C6.125 13.5911 14.3518 16.3334 24.5 16.3334Z" stroke="url(#paint0_linear_16_80)" stroke-width="2" stroke-linecap="round" stroke-linejoin="round"/>
<path d="M42.875 24.5C42.875 27.8892 34.7083 30.625 24.5 30.625C14.2917 30.625 6.125 27.8892 6.125 24.5" stroke="url(#paint1_linear_16_80)" stroke-width="2" stroke-linecap="round" stroke-linejoin="round"/>
<path d="M6.125 10.2084V38.7917C6.125 42.1809 14.2917 44.9167 24.5 44.9167C34.7083 44.9167 42.875 42.1809 42.875 38.7917V10.2084" stroke="url(#paint2_linear_16_80)" stroke-width="2" stroke-linecap="round" stroke-linejoin="round"/>
<defs>
<linearGradient id="paint0_linear_16_80" x1="24.5" y1="4.08337" x2="24.5" y2="16.3334" gradientUnits="userSpaceOnUse">
<stop stop-color="#FF0000"/>
<stop offset="1" stop-color="#990000"/>
</linearGradient>
<linearGradient id="paint1_linear_16_80" x1="24.5" y1="24.5" x2="24.5" y2="30.625" gradientUnits="userSpaceOnUse">
<stop stop-color="#FF0000"/>
<stop offset="1" stop-color="#990000"/>
</linearGradient>
<linearGradient id="paint2_linear_16_80" x1="24.5" y1="10.2084" x2="24.5" y2="44.9167" gradientUnits="userSpaceOnUse">
<stop stop-color="#FF0000"/>
<stop offset="1" stop-color="#990000"/>
</linearGradient>
</defs>
</svg>
