<svg width="42" height="43" viewBox="0 0 42 43" fill="none" xmlns="http://www.w3.org/2000/svg">
<path d="M16 25.0875C16 27.076 17.5 28.675 19.34 28.675H23.1C24.7 28.675 26 27.281 26 25.5385C26 23.673 25.2 22.9965 24.02 22.566L18 20.4135C16.82 19.983 16.02 19.327 16.02 17.441C16.02 15.719 17.32 14.3045 18.92 14.3045H22.68C24.52 14.3045 26.02 15.9035 26.02 17.892" stroke="white" stroke-width="2" stroke-linecap="round" stroke-linejoin="round"/>
<path d="M21 12.275V30.725" stroke="white" stroke-width="2" stroke-linecap="round" stroke-linejoin="round"/>
<path d="M41 21.5C41 32.816 32.04 42 21 42C9.96 42 1 32.816 1 21.5C1 10.184 9.96 1 21 1" stroke="white" stroke-width="2" stroke-linecap="round" stroke-linejoin="round"/>
<path d="M41 9.2V1H33" stroke="white" stroke-width="2" stroke-linecap="round" stroke-linejoin="round"/>
<path d="M31 11.25L41 1" stroke="white" stroke-width="2" stroke-linecap="round" stroke-linejoin="round"/>
</svg>
