<svg width="34" height="33" viewBox="0 0 34 33" fill="none" xmlns="http://www.w3.org/2000/svg">
<path d="M8.24792 6.48413C8.5327 6.48413 8.76355 6.26027 8.76355 5.98413C8.76355 5.70799 8.5327 5.48413 8.24792 5.48413C7.96315 5.48413 7.7323 5.70799 7.7323 5.98413C7.7323 6.26027 7.96315 6.48413 8.24792 6.48413Z" fill="url(#paint0_linear_436_95)"/>
<path d="M6.18542 6.48413C6.4702 6.48413 6.70105 6.26027 6.70105 5.98413C6.70105 5.70799 6.4702 5.48413 6.18542 5.48413C5.90065 5.48413 5.6698 5.70799 5.6698 5.98413C5.6698 6.26027 5.90065 6.48413 6.18542 6.48413Z" fill="url(#paint1_linear_436_95)"/>
<path d="M4.12292 6.48413C4.4077 6.48413 4.63855 6.26027 4.63855 5.98413C4.63855 5.70799 4.4077 5.48413 4.12292 5.48413C3.83815 5.48413 3.6073 5.70799 3.6073 5.98413C3.6073 6.26027 3.83815 6.48413 4.12292 6.48413Z" fill="url(#paint2_linear_436_95)"/>
<path d="M31.9667 8.48413H2.06042C1.7758 8.48413 1.5448 8.26013 1.5448 7.98413C1.5448 7.70813 1.7758 7.48413 2.06042 7.48413H31.9667C32.2513 7.48413 32.4823 7.70813 32.4823 7.98413C32.4823 8.26013 32.2513 8.48413 31.9667 8.48413Z" fill="url(#paint3_linear_436_95)"/>
<path d="M30.9354 3.48413H3.09167C2.23883 3.48413 1.5448 4.15713 1.5448 4.98413V27.9841C1.5448 28.8111 2.23883 29.4841 3.09167 29.4841H30.9354C31.7883 29.4841 32.4823 28.8111 32.4823 27.9841V4.98413C32.4823 4.15713 31.7883 3.48413 30.9354 3.48413ZM31.451 27.9841C31.451 28.2591 31.219 28.4841 30.9354 28.4841H3.09167C2.80808 28.4841 2.57605 28.2591 2.57605 27.9841V4.98413C2.57605 4.70913 2.80808 4.48413 3.09167 4.48413H30.9354C31.219 4.48413 31.451 4.70913 31.451 4.98413V27.9841Z" fill="url(#paint4_linear_436_95)"/>
<path d="M25.7792 22.4841H28.8729C29.1575 22.4841 29.3885 22.2601 29.3885 21.9841C29.3885 21.7081 29.1575 21.4841 28.8729 21.4841H25.7792C25.4945 21.4841 25.2635 21.7081 25.2635 21.9841C25.2635 22.2601 25.4945 22.4841 25.7792 22.4841Z" fill="url(#paint5_linear_436_95)"/>
<path d="M18.5604 24.4841H21.6542C21.9388 24.4841 22.1698 24.2601 22.1698 23.9841C22.1698 23.7081 21.9388 23.4841 21.6542 23.4841H18.5604C18.2758 23.4841 18.0448 23.7081 18.0448 23.9841C18.0448 24.2601 18.2758 24.4841 18.5604 24.4841Z" fill="url(#paint6_linear_436_95)"/>
<path d="M18.5604 26.4841H23.7167C24.0013 26.4841 24.2323 26.2601 24.2323 25.9841C24.2323 25.7081 24.0013 25.4841 23.7167 25.4841H18.5604C18.2758 25.4841 18.0448 25.7081 18.0448 25.9841C18.0448 26.2601 18.2758 26.4841 18.5604 26.4841Z" fill="url(#paint7_linear_436_95)"/>
<path d="M25.7792 26.4841H26.8104C27.095 26.4841 27.326 26.2601 27.326 25.9841C27.326 25.7081 27.095 25.4841 26.8104 25.4841H25.7792C25.4945 25.4841 25.2635 25.7081 25.2635 25.9841C25.2635 26.2601 25.4945 26.4841 25.7792 26.4841Z" fill="url(#paint8_linear_436_95)"/>
<path d="M18.5604 22.4841H23.7167C24.0013 22.4841 24.2323 22.2601 24.2323 21.9841C24.2323 21.7081 24.0013 21.4841 23.7167 21.4841H18.5604C18.2758 21.4841 18.0448 21.7081 18.0448 21.9841C18.0448 22.2601 18.2758 22.4841 18.5604 22.4841Z" fill="url(#paint9_linear_436_95)"/>
<path d="M23.7167 24.4841H28.8729C29.1575 24.4841 29.3885 24.2601 29.3885 23.9841C29.3885 23.7081 29.1575 23.4841 28.8729 23.4841H23.7167C23.432 23.4841 23.201 23.7081 23.201 23.9841C23.201 24.2601 23.432 24.4841 23.7167 24.4841Z" fill="url(#paint10_linear_436_95)"/>
<path d="M15.4667 24.4841H12.3729C12.0883 24.4841 11.8573 24.2601 11.8573 23.9841C11.8573 23.7081 12.0883 23.4841 12.3729 23.4841H15.4667C15.7513 23.4841 15.9823 23.7081 15.9823 23.9841C15.9823 24.2601 15.7513 24.4841 15.4667 24.4841Z" fill="url(#paint11_linear_436_95)"/>
<path d="M13.4042 26.4841H10.3104C10.0258 26.4841 9.7948 26.2601 9.7948 25.9841C9.7948 25.7081 10.0258 25.4841 10.3104 25.4841H13.4042C13.6888 25.4841 13.9198 25.7081 13.9198 25.9841C13.9198 26.2601 13.6888 26.4841 13.4042 26.4841Z" fill="url(#paint12_linear_436_95)"/>
<path d="M8.24792 26.4841H5.15417C4.86955 26.4841 4.63855 26.2601 4.63855 25.9841C4.63855 25.7081 4.86955 25.4841 5.15417 25.4841H8.24792C8.53255 25.4841 8.76355 25.7081 8.76355 25.9841C8.76355 26.2601 8.53255 26.4841 8.24792 26.4841Z" fill="url(#paint13_linear_436_95)"/>
<path d="M16.4979 18.4841H6.18542C5.9008 18.4841 5.6698 18.2601 5.6698 17.9841C5.6698 17.7081 5.9008 17.4841 6.18542 17.4841H16.4979C16.7825 17.4841 17.0135 17.7081 17.0135 17.9841C17.0135 18.2601 16.7825 18.4841 16.4979 18.4841Z" fill="url(#paint14_linear_436_95)"/>
<path d="M15.4667 22.4841H5.15417C4.86955 22.4841 4.63855 22.2601 4.63855 21.9841C4.63855 21.7081 4.86955 21.4841 5.15417 21.4841H15.4667C15.7513 21.4841 15.9823 21.7081 15.9823 21.9841C15.9823 22.2601 15.7513 22.4841 15.4667 22.4841Z" fill="url(#paint15_linear_436_95)"/>
<path d="M10.3104 24.4841H5.15417C4.86955 24.4841 4.63855 24.2601 4.63855 23.9841C4.63855 23.7081 4.86955 23.4841 5.15417 23.4841H10.3104C10.595 23.4841 10.826 23.7081 10.826 23.9841C10.826 24.2601 10.595 24.4841 10.3104 24.4841Z" fill="url(#paint16_linear_436_95)"/>
<path d="M28.8729 18.4841H5.15417C4.86955 18.4841 4.63855 18.2601 4.63855 17.9841V10.9841C4.63855 10.7081 4.86955 10.4841 5.15417 10.4841H28.8729C29.1575 10.4841 29.3885 10.7081 29.3885 10.9841V17.9841C29.3885 18.2601 29.1575 18.4841 28.8729 18.4841ZM5.6698 17.4841H28.3573V11.4841H5.6698V17.4841Z" fill="url(#paint17_linear_436_95)"/>
<defs>
<linearGradient id="paint0_linear_436_95" x1="8.24792" y1="5.48413" x2="8.24792" y2="6.48413" gradientUnits="userSpaceOnUse">
<stop stop-color="#FF0000"/>
<stop offset="1" stop-color="#990000"/>
</linearGradient>
<linearGradient id="paint1_linear_436_95" x1="6.18542" y1="5.48413" x2="6.18542" y2="6.48413" gradientUnits="userSpaceOnUse">
<stop stop-color="#FF0000"/>
<stop offset="1" stop-color="#990000"/>
</linearGradient>
<linearGradient id="paint2_linear_436_95" x1="4.12292" y1="5.48413" x2="4.12292" y2="6.48413" gradientUnits="userSpaceOnUse">
<stop stop-color="#FF0000"/>
<stop offset="1" stop-color="#990000"/>
</linearGradient>
<linearGradient id="paint3_linear_436_95" x1="17.0135" y1="7.48413" x2="17.0135" y2="8.48413" gradientUnits="userSpaceOnUse">
<stop stop-color="#FF0000"/>
<stop offset="1" stop-color="#990000"/>
</linearGradient>
<linearGradient id="paint4_linear_436_95" x1="17.0135" y1="3.48413" x2="17.0135" y2="29.4841" gradientUnits="userSpaceOnUse">
<stop stop-color="#FF0000"/>
<stop offset="1" stop-color="#990000"/>
</linearGradient>
<linearGradient id="paint5_linear_436_95" x1="27.326" y1="21.4841" x2="27.326" y2="22.4841" gradientUnits="userSpaceOnUse">
<stop stop-color="#FF0000"/>
<stop offset="1" stop-color="#990000"/>
</linearGradient>
<linearGradient id="paint6_linear_436_95" x1="20.1073" y1="23.4841" x2="20.1073" y2="24.4841" gradientUnits="userSpaceOnUse">
<stop stop-color="#FF0000"/>
<stop offset="1" stop-color="#990000"/>
</linearGradient>
<linearGradient id="paint7_linear_436_95" x1="21.1385" y1="25.4841" x2="21.1385" y2="26.4841" gradientUnits="userSpaceOnUse">
<stop stop-color="#FF0000"/>
<stop offset="1" stop-color="#990000"/>
</linearGradient>
<linearGradient id="paint8_linear_436_95" x1="26.2948" y1="25.4841" x2="26.2948" y2="26.4841" gradientUnits="userSpaceOnUse">
<stop stop-color="#FF0000"/>
<stop offset="1" stop-color="#990000"/>
</linearGradient>
<linearGradient id="paint9_linear_436_95" x1="21.1385" y1="21.4841" x2="21.1385" y2="22.4841" gradientUnits="userSpaceOnUse">
<stop stop-color="#FF0000"/>
<stop offset="1" stop-color="#990000"/>
</linearGradient>
<linearGradient id="paint10_linear_436_95" x1="26.2948" y1="23.4841" x2="26.2948" y2="24.4841" gradientUnits="userSpaceOnUse">
<stop stop-color="#FF0000"/>
<stop offset="1" stop-color="#990000"/>
</linearGradient>
<linearGradient id="paint11_linear_436_95" x1="13.9198" y1="23.4841" x2="13.9198" y2="24.4841" gradientUnits="userSpaceOnUse">
<stop stop-color="#FF0000"/>
<stop offset="1" stop-color="#990000"/>
</linearGradient>
<linearGradient id="paint12_linear_436_95" x1="11.8573" y1="25.4841" x2="11.8573" y2="26.4841" gradientUnits="userSpaceOnUse">
<stop stop-color="#FF0000"/>
<stop offset="1" stop-color="#990000"/>
</linearGradient>
<linearGradient id="paint13_linear_436_95" x1="6.70105" y1="25.4841" x2="6.70105" y2="26.4841" gradientUnits="userSpaceOnUse">
<stop stop-color="#FF0000"/>
<stop offset="1" stop-color="#990000"/>
</linearGradient>
<linearGradient id="paint14_linear_436_95" x1="11.3417" y1="17.4841" x2="11.3417" y2="18.4841" gradientUnits="userSpaceOnUse">
<stop stop-color="#FF0000"/>
<stop offset="1" stop-color="#990000"/>
</linearGradient>
<linearGradient id="paint15_linear_436_95" x1="10.3104" y1="21.4841" x2="10.3104" y2="22.4841" gradientUnits="userSpaceOnUse">
<stop stop-color="#FF0000"/>
<stop offset="1" stop-color="#990000"/>
</linearGradient>
<linearGradient id="paint16_linear_436_95" x1="7.7323" y1="23.4841" x2="7.7323" y2="24.4841" gradientUnits="userSpaceOnUse">
<stop stop-color="#FF0000"/>
<stop offset="1" stop-color="#990000"/>
</linearGradient>
<linearGradient id="paint17_linear_436_95" x1="17.0135" y1="10.4841" x2="17.0135" y2="18.4841" gradientUnits="userSpaceOnUse">
<stop stop-color="#FF0000"/>
<stop offset="1" stop-color="#990000"/>
</linearGradient>
</defs>
</svg>
