<svg width="160" height="45" viewBox="0 0 160 45" fill="none" xmlns="http://www.w3.org/2000/svg">
<g clip-path="url(#clip0_1_4)">
<path d="M52.4976 30.6938C47.5189 30.6938 43.7144 29.3203 41.0829 26.5734C38.4515 23.8266 37.1357 20.1211 37.1357 15.457C37.1357 12.382 37.7042 9.71367 38.8425 7.44961C39.9807 5.18672 41.6874 3.42539 43.9627 2.16328C46.238 0.902346 49.0829 0.271877 52.4976 0.271877C57.4763 0.271877 61.2629 1.64531 63.8596 4.39219C66.4551 7.13906 67.754 10.8281 67.754 15.457C67.754 18.4629 67.1759 21.1148 66.0209 23.4117C64.8646 25.7098 63.1579 27.4981 60.9006 28.7754C58.6422 30.0527 55.8416 30.6926 52.4988 30.6926L52.4976 30.6938ZM52.3909 23.6977C54.2044 23.6977 55.706 23.3273 56.8982 22.5832C58.0892 21.8402 58.978 20.8395 59.5657 19.5773C60.1522 18.3164 60.4461 16.943 60.4461 15.457C60.4461 13.9711 60.1522 12.5379 59.5657 11.2594C58.9792 9.98203 58.0892 8.9625 56.8982 8.20196C55.706 7.44258 54.2044 7.06172 52.3909 7.06172C49.7942 7.06172 47.8116 7.85625 46.4431 9.44532C45.0733 11.0344 44.3897 13.0395 44.3897 15.457C44.3897 16.9078 44.6835 18.2648 45.27 19.5258C45.8566 20.7879 46.7369 21.7981 47.9099 22.5574C49.0829 23.318 50.5774 23.6977 52.3909 23.6977Z" fill="url(#paint0_linear_1_4)"/>
<path d="M79.1051 30.2156C76.2601 30.2156 73.6646 29.6637 71.3174 28.5574C68.9702 27.4523 67.1039 25.7941 65.7162 23.5816C64.3297 21.3715 63.6532 18.6246 63.6892 15.341C63.724 12.1277 64.4269 9.37266 65.7966 7.07461C67.1651 4.77773 69.0242 3.02461 71.3702 1.81406C73.7174 0.604688 76.3489 0 79.2646 0C82.1804 0 84.8299 0.527344 86.8928 1.58086C88.9546 2.63555 90.5642 4.01719 91.7204 5.72695C92.8754 7.43672 93.6143 9.27656 93.9345 11.2465H86.2535C86.0748 9.93398 85.5687 8.96602 84.7339 8.34375C83.8979 7.72148 82.9732 7.31602 81.9597 7.12617C80.9462 6.93633 80.0479 6.84141 79.2658 6.84141C76.4916 6.84141 74.4299 7.54102 73.0781 8.94024C71.7264 10.3395 71.0511 12.2824 71.0511 14.7703C71.0511 17.4996 71.7084 19.6254 73.0242 21.1453C74.3399 22.6664 76.4017 23.4258 79.2119 23.4258C80.0299 23.4258 80.9534 23.3145 81.9861 23.0883C83.0176 22.8645 83.9507 22.4063 84.7867 21.7148C85.6215 21.0246 86.1288 19.9875 86.3063 18.6059H94.0413C93.685 20.6449 92.921 22.5539 91.748 24.3328C90.575 26.1129 88.9474 27.5379 86.8676 28.6078C84.7879 29.6789 82.2008 30.2145 79.1063 30.2145L79.1051 30.2156Z" fill="url(#paint1_linear_1_4)"/>
<path d="M90.887 30.0949V0.916409H98.3017V30.0938H90.887V30.0949ZM98.1949 21.3363V13.4074L109.076 0.916409H118.784V1.59024L98.1937 21.3352L98.1949 21.3363ZM110.943 30.0949L100.969 15.273L106.357 10.1426L119.425 29.4223V30.0961H110.945L110.943 30.0949Z" fill="url(#paint2_linear_1_4)"/>
<path d="M116.53 30.0949V0.916409H139.253V7.08399H123.837V12.4219H135.306V18.2262H123.837V24.341H139.839V30.0938H116.529L116.53 30.0949Z" fill="url(#paint3_linear_1_4)"/>
<path d="M136.253 7.08399V0.916409H159.989V7.08399H136.253ZM151.828 1.84922V30.0938H144.361V1.84922H151.828Z" fill="url(#paint4_linear_1_4)"/>
<path d="M24.0239 19.8258C23.9495 19.8902 23.8356 19.8855 23.7696 19.8152C23.766 19.8117 23.7636 19.8082 23.76 19.8047C23.8464 19.766 23.9471 19.773 24.0239 19.8258Z" fill="url(#paint5_linear_1_4)"/>
<path d="M17.282 30.3141V0.0785141H29.781C32.4736 0.0785141 34.7837 0.383201 36.7123 0.991404C38.6409 1.60078 40.1318 2.56758 41.1873 3.8918C42.2427 5.21719 42.7705 6.98906 42.7705 9.20859C42.7705 11.0344 42.497 12.5836 41.9513 13.8539C41.4056 15.1254 40.6224 16.1016 39.6041 16.7812C38.5846 17.4621 37.384 17.802 36.0023 17.802C36.8754 17.802 37.5579 17.9719 38.0484 18.3117C38.5402 18.6527 38.9216 19.0992 39.1951 19.6547C39.4685 20.2102 39.6772 20.7914 39.8224 21.3996C39.9675 22.009 40.1126 22.5996 40.2589 23.1715C40.4041 23.7445 40.614 24.2285 40.8862 24.6211C41.1597 25.016 41.5687 25.248 42.1144 25.3195C42.6601 25.3922 43.3882 25.248 44.2973 24.8895V28.9711C43.2778 29.8301 42.1504 30.3938 40.9138 30.6633C39.676 30.9316 38.503 30.8602 37.3936 30.4488C36.2829 30.0375 35.3642 29.25 34.6373 28.0863C33.9093 26.9238 33.5459 25.3395 33.5459 23.3332C33.5459 22.6535 33.5087 22.0172 33.4367 21.4266C33.3636 20.8359 33.1813 20.3168 32.891 19.8691C32.5996 19.4215 32.145 19.0547 31.5261 18.7688C30.9072 18.4828 30.07 18.3035 29.0158 18.232C27.9603 18.1605 26.5954 18.1969 24.9222 18.3398V30.3152H17.2808L17.282 30.3141ZM24.9234 13.0746H28.7435C30.4167 13.0746 31.7816 13.057 32.837 13.0207C33.8925 12.9855 34.6829 12.7441 35.2119 12.2953C35.7384 11.8477 36.0035 11.0332 36.0035 9.85195C36.0035 8.52773 35.6844 7.60547 35.0487 7.08633C34.4119 6.56719 33.4835 6.27188 32.2649 6.20039C31.0451 6.12891 29.5447 6.09258 27.7624 6.09258H24.9246V13.0746H24.9234Z" fill="url(#paint6_linear_1_4)"/>
<path d="M14.6038 14.6648C14.4755 14.4832 14.3435 14.3039 14.2176 14.1199C14.1312 13.991 14.0209 13.8797 13.8913 13.7906L13.438 13.4742C13.4272 13.466 13.4152 13.459 13.402 13.4543C13.1225 13.3418 12.8467 13.2141 12.5432 13.1672C12.4149 13.1473 12.2805 13.1602 12.1486 13.1508C11.9699 13.1367 11.79 13.1496 11.6136 13.1883C11.4337 13.2293 11.2406 13.2445 11.0823 13.3559C10.9228 13.3887 10.81 13.5199 10.6517 13.5574C10.6385 13.5609 10.6265 13.5691 10.6181 13.5797C10.5306 13.7156 10.3723 13.7742 10.2595 13.8867C10.142 14.0016 10.0316 14.1223 9.92849 14.2488C9.81574 14.3848 9.72099 14.5348 9.64903 14.6941C9.63943 14.7129 9.62984 14.7305 9.61784 14.7469C9.59026 14.7914 9.56867 14.7914 9.51949 14.748C9.5111 14.7375 9.5027 14.727 9.4967 14.7152V14.7094C9.59146 14.6473 9.62744 14.5676 9.57227 14.4645C9.63344 14.4305 9.67901 14.3742 9.6994 14.3098C9.74618 14.1973 9.80375 14.0883 9.86972 13.9863C9.93808 13.8691 10.0232 13.7613 10.1204 13.6652C10.2547 13.5293 10.419 13.4262 10.5498 13.2855C10.5954 13.2434 10.6481 13.2094 10.7069 13.1871C10.8388 13.1238 10.972 13.0711 11.1027 13.009C11.3834 12.8742 11.6916 12.8062 12.0035 12.8098C12.097 12.8098 12.199 12.8355 12.2841 12.7617C12.3441 12.8379 12.4581 12.8508 12.5372 12.7922C12.5408 12.7898 12.5444 12.7863 12.548 12.7828C12.59 12.7688 12.6356 12.777 12.6692 12.8039C12.6931 12.8449 12.7315 12.8754 12.7783 12.8895C13.0626 12.9727 13.3348 13.0922 13.5855 13.2445C13.7306 13.323 13.8386 13.4473 13.9633 13.5516C14.1804 13.7332 14.3135 13.977 14.4707 14.202C14.5162 14.284 14.551 14.3707 14.5762 14.4598C14.6002 14.5219 14.6182 14.5852 14.6398 14.6484L14.6026 14.666L14.6038 14.6648Z" fill="url(#paint7_linear_1_4)"/>
<path d="M9.57113 14.4598C9.6263 14.5629 9.58912 14.6414 9.49676 14.7047C9.47517 14.6168 9.50276 14.523 9.57113 14.4598Z" fill="url(#paint8_linear_1_4)"/>
<path d="M12.2602 24.0023C12.2602 24.0023 12.2554 23.9859 12.2578 23.9859C12.2685 23.9789 12.2697 23.9871 12.2578 24.0023H12.2613H12.2602Z" fill="url(#paint9_linear_1_4)"/>
<path d="M14.6038 14.6648L14.6386 14.6414C14.6386 14.6414 14.6469 14.652 14.6505 14.6578C14.6661 14.6883 14.6769 14.7188 14.6481 14.7492C14.6445 14.7516 14.6338 14.7516 14.629 14.7492C14.5978 14.7328 14.587 14.6965 14.6038 14.666V14.6648Z" fill="url(#paint10_linear_1_4)"/>
<path d="M12.2829 12.7547C12.199 12.8285 12.0958 12.8039 12.0023 12.8027C11.6904 12.7992 11.3821 12.8672 11.1015 13.002C10.9683 13.0652 10.8364 13.118 10.7057 13.1801C10.6469 13.2035 10.5929 13.2375 10.5461 13.2809C10.4154 13.4215 10.2499 13.5246 10.1168 13.6605C10.0196 13.7566 9.93445 13.8645 9.86609 13.9816C9.79892 14.0848 9.74255 14.1926 9.69577 14.3051C9.67538 14.3707 9.62981 14.4258 9.56864 14.4598C9.55664 14.407 9.56744 14.352 9.59622 14.3051C9.68138 14.1387 9.74855 13.9641 9.87209 13.8129C10.0232 13.6383 10.1875 13.473 10.3614 13.3195C10.4886 13.193 10.6433 13.0945 10.8136 13.0312C10.8988 13.002 10.9743 12.9527 11.0571 12.9176C11.3989 12.7711 11.7611 12.7289 12.1294 12.709C12.1846 12.7078 12.2398 12.7242 12.2841 12.7547H12.2829Z" fill="url(#paint11_linear_1_4)" stroke="#EDEDED" stroke-miterlimit="10"/>
<path d="M54.7285 35.6273C53.5255 36.157 52.3669 36.6598 50.5594 37.1496C42.7453 39.2648 32.566 38.468 32.566 38.468C32.4856 37.0535 32.3861 35.6109 32.2661 34.1402C32.1426 32.6238 32.0011 31.1402 31.8452 29.6918C32.2985 29.5113 33.1393 29.1902 34.3867 28.7215C37.402 27.5988 40.4053 26.9871 40.8646 26.8945C42.232 26.6203 44.3165 26.2125 47.0643 26.141C50.0568 26.0625 52.2613 26.4258 53.0386 26.5617C53.8877 26.7105 56.4425 27.2004 59.1003 28.7789C60.3237 29.5055 60.8934 30.0621 60.9174 30.7207C60.939 31.3453 60.4628 31.8797 59.4877 32.6719C57.3768 34.3898 55.381 35.3402 54.7273 35.6273H54.7285Z" fill="url(#paint12_linear_1_4)"/>
<path d="M40.8371 37.793C40.3633 37.8211 39.7036 37.8398 38.912 37.8012C38.7981 37.7953 38.659 37.7871 38.4874 37.7754C37.2545 37.6863 33.4811 37.3008 32.4892 37.2C32.4545 36.6891 32.4065 36.0094 32.3429 35.2078C32.3009 34.6769 32.2458 34.023 32.1342 32.7152C32.0826 32.1117 32.0347 31.5527 31.9603 30.8074C31.9399 30.6035 31.9231 30.4348 31.9111 30.3187C31.9111 30.3187 36.5576 28.1965 41.9465 27.5566C42.7897 27.457 44.4952 27.293 46.653 27.4195C50.5258 27.648 52.5504 28.6219 53.2629 28.9969C54.6098 29.7047 55.4985 30.1723 55.6233 30.9891C55.9087 32.8523 51.9627 34.8316 50.7561 35.4363C49.6755 35.9789 46.1312 37.6371 40.8359 37.793H40.8371Z" fill="url(#paint13_linear_1_4)" stroke="white" stroke-miterlimit="10"/>
<path d="M49.0717 33.7302C50.2068 33.3036 50.7797 32.0759 50.3514 30.9879C49.9231 29.9 48.6557 29.3639 47.5206 29.7906C46.3855 30.2172 45.8125 31.4449 46.2408 32.5329C46.6691 33.6207 47.9365 34.1569 49.0717 33.7302Z" fill="url(#paint14_linear_1_4)" stroke="white" stroke-width="2" stroke-miterlimit="10"/>
<path opacity="0.99" d="M30.9767 36.3586C30.8519 34.7191 30.7272 33.0797 30.6024 31.4402C31.0702 31.2867 31.5392 31.1332 32.0069 30.9797C32.1089 32.0859 32.206 33.2027 32.2984 34.3277C32.3572 35.0473 32.4135 35.7633 32.4663 36.477C31.9698 36.4383 31.4732 36.3984 30.9755 36.3598L30.9767 36.3586Z" fill="url(#paint15_linear_1_4)" stroke="#C6C6C6" stroke-width="0.5" stroke-miterlimit="10"/>
<path d="M30.8808 31.9746L30.8436 31.7004C30.8293 31.5984 30.9048 31.5023 31.0116 31.4883L31.6412 31.4016C31.748 31.3863 31.8451 31.4578 31.8595 31.5609L31.8967 31.8352C31.9111 31.9371 31.8356 32.0332 31.7288 32.0473L31.0991 32.134C30.9924 32.1492 30.8952 32.0777 30.8808 31.9746Z" fill="url(#paint16_linear_1_4)"/>
<path d="M30.9456 32.9332L30.9288 32.6578C30.9228 32.5547 31.0044 32.4645 31.1123 32.4574L31.7468 32.4152C31.8535 32.4082 31.9459 32.4856 31.9519 32.5887L31.9687 32.8641C31.9747 32.9672 31.8931 33.0574 31.7852 33.0645L31.1507 33.1066C31.044 33.1137 30.9516 33.0363 30.9456 32.9332Z" fill="url(#paint17_linear_1_4)"/>
<path d="M31.0152 33.9492L30.9984 33.6738C30.9924 33.5707 31.074 33.4805 31.1819 33.4734L31.8164 33.4313C31.9231 33.4242 32.0155 33.5016 32.0215 33.6047L32.0383 33.8801C32.0443 33.9832 31.9627 34.0734 31.8548 34.0805L31.2203 34.1227C31.1135 34.1297 31.0212 34.0523 31.0152 33.9492Z" fill="url(#paint18_linear_1_4)"/>
<path d="M31.0991 35.0016L31.0823 34.7262C31.0763 34.623 31.1579 34.5328 31.2658 34.5258L31.9003 34.4836C32.0071 34.4766 32.0994 34.5539 32.1054 34.657L32.1222 34.9324C32.1282 35.0355 32.0467 35.1258 31.9387 35.1328L31.3042 35.175C31.1975 35.182 31.1051 35.1047 31.0991 35.0016Z" fill="url(#paint19_linear_1_4)"/>
<path d="M31.1807 36.0551L31.1639 35.7797C31.1579 35.6766 31.2394 35.5863 31.3474 35.5793L31.9819 35.5371C32.0886 35.5301 32.181 35.6074 32.187 35.7105L32.2038 35.9859C32.2098 36.0891 32.1282 36.1793 32.0203 36.1863L31.3858 36.2285C31.279 36.2355 31.1867 36.1582 31.1807 36.0551Z" fill="url(#paint20_linear_1_4)"/>
<path d="M40.2961 34.8492C38.7777 35.0813 37.2305 35.3391 35.658 35.6238C35.0691 35.7305 34.4862 35.8395 33.9069 35.9508C33.733 36.4863 33.5495 36.9106 33.4032 37.2129C33.2377 37.5563 33.0613 37.8633 32.9906 37.991C32.9078 38.1398 32.8011 38.3203 32.7171 38.4527C32.3909 38.9625 31.7096 39.7606 30.1612 40.527C32.0646 40.4602 34.0377 40.3453 36.0742 40.1731C36.8107 40.1109 37.5375 40.043 38.2559 39.9691C38.6074 39.0363 38.9756 38.0895 39.3606 37.1309C39.6712 36.3574 39.9843 35.5957 40.2985 34.8469L40.2961 34.8492Z" fill="url(#paint21_linear_1_4)" stroke="white" stroke-miterlimit="10"/>
<path d="M39.3617 35.3297C38.2174 35.5453 37.0528 35.7809 35.869 36.0387C35.4264 36.1348 34.9875 36.2332 34.5521 36.3316C34.4381 36.7406 34.311 37.0652 34.2102 37.2984C34.0951 37.5621 33.9716 37.7977 33.9224 37.8973C33.8648 38.0121 33.7893 38.1504 33.7293 38.2523C33.499 38.6461 33.0073 39.266 31.857 39.8859C33.2987 39.7852 34.7908 39.6457 36.3296 39.4617C36.8861 39.3949 37.4354 39.3246 37.9776 39.2496C38.215 38.5359 38.4633 37.8117 38.7236 37.0781C38.9347 36.4863 39.147 35.9027 39.3617 35.3297Z" fill="url(#paint22_linear_1_4)" stroke="white" stroke-miterlimit="10"/>
<path d="M39.7804 27.3141C38.2296 27.8062 36.6403 28.2891 35.014 28.7566C34.4059 28.9324 33.8014 29.1023 33.1993 29.2687C32.8011 28.8492 32.4401 28.5387 32.169 28.3242C31.8607 28.0805 31.5597 27.8766 31.4362 27.7898C31.2922 27.6891 31.1123 27.5707 30.9744 27.4863C30.4418 27.1617 29.4439 26.7352 27.6317 26.741C29.4787 25.9137 31.4122 25.0992 33.4308 24.3094C34.1612 24.0234 34.8856 23.7469 35.6029 23.4809C36.3441 24.1887 37.1069 24.9012 37.8913 25.6172C38.5234 26.1949 39.1543 26.7609 39.7804 27.3141Z" fill="url(#paint23_linear_1_4)" stroke="white" stroke-miterlimit="10"/>
<path d="M38.6794 27.3023C37.4931 27.6352 36.2793 27.9598 35.0368 28.2715C34.5726 28.3887 34.1096 28.5023 33.6515 28.6125C33.3648 28.2832 33.1021 28.0395 32.9054 27.8695C32.6812 27.6762 32.4605 27.5133 32.3693 27.4441C32.2638 27.3645 32.1318 27.2695 32.0299 27.2016C31.6389 26.9414 30.9 26.5922 29.5315 26.5488C30.9516 25.9699 32.4365 25.4027 33.9861 24.8555C34.5462 24.6574 35.1015 24.4676 35.6521 24.2836C36.1882 24.8402 36.7411 25.4004 37.3084 25.9641C37.7666 26.4187 38.2236 26.8641 38.6782 27.3L38.6794 27.3023Z" fill="url(#paint24_linear_1_4)" stroke="white" stroke-miterlimit="10"/>
<path d="M1.53507 28.0582C1.42712 28.0336 1.32637 27.9844 1.24242 27.9141C0.911386 27.6809 0.64392 27.3762 0.459212 27.0234C0.357263 26.8195 0.281701 26.6039 0.231326 26.3813C0.146169 26.0379 0.110187 25.6852 0.122181 25.3324C0.124579 25.1332 0.155764 24.9328 0.177353 24.7336C0.195344 24.6551 0.20374 24.5742 0.20254 24.4945C0.201341 24.4676 0.204939 24.4406 0.212136 24.4148C0.261311 24.2344 0.310486 24.0539 0.368058 23.8734C0.40284 23.7656 0.429227 23.6531 0.467608 23.5441C0.588747 23.2078 0.738672 22.882 0.916184 22.5703C1.07211 22.2844 1.25561 22.0125 1.46431 21.7594C1.57825 21.6234 1.6802 21.4781 1.79774 21.3457C1.90688 21.2238 2.03282 21.116 2.14557 20.9965C2.49699 20.632 2.93357 20.3742 3.35336 20.0953C3.56566 19.9664 3.78874 19.8551 4.02143 19.7637C4.19174 19.6887 4.36565 19.6242 4.54317 19.5586C4.60913 19.5352 4.6787 19.527 4.74706 19.5082C4.82383 19.4906 4.8814 19.4285 4.89219 19.3523C4.91138 19.2328 4.94017 19.1145 4.96296 18.9949C4.99894 18.8098 5.03852 18.6258 5.0673 18.4395C5.11288 18.143 5.23882 17.8746 5.36835 17.6051C5.50509 17.332 5.679 17.0777 5.88529 16.848C6.07 16.6324 6.25231 16.4051 6.50778 16.2527C6.64092 16.1133 6.79684 15.9961 6.96955 15.9047C7.22742 15.7453 7.49969 15.6105 7.78515 15.5027C8.25411 15.3469 8.73507 15.2941 9.22203 15.2602C9.2844 15.2672 9.34437 15.2297 9.36236 15.1711C9.39234 15.0961 9.41633 15.0176 9.43432 14.9391C9.45231 14.8617 9.44871 14.7773 9.49909 14.7082C9.50508 14.7199 9.51348 14.7305 9.52188 14.741C9.57105 14.7832 9.59024 14.7809 9.62023 14.7398C9.63222 14.7234 9.64302 14.7047 9.65141 14.6871C9.72338 14.5277 9.81813 14.3777 9.93087 14.2418C10.034 14.1152 10.1444 13.9945 10.2619 13.8797C10.3747 13.7672 10.533 13.7086 10.6205 13.5727C10.6289 13.5609 10.6409 13.5539 10.6541 13.5504C10.8136 13.5152 10.9252 13.384 11.0847 13.3488C11.243 13.2375 11.4385 13.2223 11.616 13.1813C11.7911 13.1414 11.9723 13.1297 12.151 13.1438C12.2829 13.1531 12.4137 13.1391 12.5456 13.1602C12.849 13.207 13.1249 13.3348 13.4044 13.4473C13.4176 13.4531 13.4284 13.4602 13.4404 13.4672L13.8937 13.7836C14.0233 13.8727 14.1336 13.984 14.22 14.1129C14.3435 14.298 14.4778 14.4762 14.6062 14.6578C14.5882 14.6871 14.599 14.7246 14.629 14.7422C14.6314 14.7457 14.6446 14.7457 14.6481 14.7422C14.6769 14.7129 14.6649 14.6813 14.6505 14.6508C14.647 14.6449 14.6434 14.6402 14.6386 14.6344C14.617 14.5711 14.5978 14.5078 14.575 14.4457C14.5522 14.3578 14.5186 14.2734 14.4754 14.1926C14.3171 13.9688 14.184 13.725 13.9681 13.5422C13.8434 13.4379 13.7342 13.3148 13.5903 13.2352C13.3396 13.0816 13.0685 12.9621 12.7831 12.8801C12.7363 12.866 12.6979 12.8355 12.6739 12.7945C12.7783 12.7793 12.8838 12.7957 12.9774 12.8414C13.2125 12.9223 13.4356 13.0313 13.6419 13.166C13.7462 13.241 13.8565 13.3125 13.9525 13.3957C14.0329 13.4578 14.1048 13.5305 14.1672 13.6113C14.2799 13.7707 14.3975 13.9277 14.5114 14.0871C14.5642 14.1668 14.6074 14.2512 14.6386 14.3402C14.7177 14.5535 14.7777 14.7738 14.8185 14.9977C14.8305 15.0703 14.8293 15.1441 14.8149 15.2168C14.8077 15.2625 14.8221 15.3422 14.7549 15.341C14.7069 15.341 14.7165 15.2637 14.7057 15.2215C14.6434 14.9672 14.5282 14.727 14.3663 14.5184C14.2535 14.3742 14.1552 14.2207 14.0496 14.0719C13.9789 13.9734 13.8925 13.8855 13.7942 13.8129C13.5531 13.6242 13.282 13.4742 12.9918 13.3676C12.9714 13.3605 12.9546 13.3488 12.9354 13.3441C12.5288 13.2516 12.1186 13.173 11.6988 13.2504C11.4793 13.2879 11.2658 13.3559 11.0655 13.4508C10.9288 13.5188 10.7956 13.5938 10.6685 13.677C10.3914 13.8598 10.1516 14.0895 9.96086 14.3566C9.78215 14.598 9.63342 14.8582 9.51948 15.1324C9.49069 15.2039 9.50149 15.2227 9.57105 15.2602C9.62622 15.2871 9.68739 15.3047 9.74856 15.3117C9.92008 15.3422 10.0892 15.3773 10.2619 15.3996C10.4742 15.4324 10.6829 15.4816 10.8868 15.5473C11.225 15.648 11.5369 15.8156 11.8031 16.0383C11.8187 16.0512 11.8271 16.0699 11.8271 16.0898C11.8211 16.1215 11.7899 16.1238 11.7612 16.1227C11.616 16.1063 11.4745 16.0676 11.3438 16.0055C11.1627 15.9398 10.9779 15.8871 10.7884 15.8473C10.6457 15.8156 10.5006 15.7992 10.3543 15.798C10.0904 15.7863 9.82533 15.7887 9.56146 15.8039C9.36715 15.8215 9.17525 15.8555 8.98575 15.9035C8.66071 15.9773 8.34287 16.0828 8.03942 16.2176C8.00224 16.2352 7.96505 16.2551 7.93027 16.2773C7.64961 16.4426 7.37855 16.623 7.11828 16.8164C7.01153 16.902 6.91198 16.9957 6.82083 17.0988C6.56296 17.3555 6.34347 17.6449 6.16835 17.9602C5.99684 18.2684 5.86131 18.5941 5.76536 18.9305C5.73297 19.0395 5.71378 19.152 5.70658 19.2656C5.70539 19.3512 5.71738 19.3723 5.80733 19.3828C5.92368 19.398 6.04242 19.4027 6.15876 19.4156C6.4694 19.4426 6.77285 19.5188 7.05711 19.6395C7.22263 19.7203 7.37135 19.8281 7.49609 19.9594C7.45771 19.9852 7.41573 19.9652 7.37975 19.9594C7.16865 19.9195 6.96236 19.8703 6.74886 19.8328C6.62053 19.8082 6.49459 19.7789 6.36386 19.7602C5.92488 19.698 5.50628 19.7859 5.08889 19.9043C5.02892 19.9219 4.97015 19.9383 4.90898 19.9535C4.81303 19.9734 4.72068 20.0063 4.63432 20.0508C4.56116 20.0906 4.4856 20.1246 4.40763 20.1539C3.97345 20.3309 3.59444 20.598 3.21543 20.8605C3.0847 20.9602 2.95996 21.0668 2.84242 21.1828C2.69969 21.3117 2.55456 21.4383 2.42023 21.5742C2.0736 21.9258 1.77015 22.3137 1.51348 22.7309C1.38035 22.9512 1.25921 23.1785 1.15127 23.4117C1.02893 23.6672 0.928178 23.932 0.850217 24.2027C0.771056 24.4793 0.670307 24.7523 0.66431 25.0465C0.660711 25.1918 0.633125 25.3383 0.627128 25.4859C0.617533 25.8539 0.657113 26.2219 0.74347 26.5793C0.811836 26.8781 0.919782 27.1676 1.06371 27.4406C1.14887 27.6164 1.2676 27.7746 1.41273 27.9094C1.45591 27.9527 1.49429 27.9996 1.52787 28.0488L1.53747 28.0582H1.53507Z" fill="url(#paint25_linear_1_4)" stroke="#EDEDED" stroke-miterlimit="10"/>
<path d="M16.9186 23.3543C16.7795 23.5746 16.6212 23.782 16.4425 23.9742C16.2434 24.191 16.0167 24.382 15.7672 24.5414C15.7552 24.5484 15.7444 24.5555 15.7324 24.5637C15.4626 24.7758 15.1303 24.8742 14.8089 24.9785C14.6638 25.0254 14.5234 25.0852 14.3795 25.1332C14.3111 25.1566 14.3027 25.2035 14.3363 25.2609C14.3795 25.3125 14.4287 25.3594 14.4827 25.4016C14.5378 25.4637 14.6254 25.4895 14.7081 25.4695C14.8725 25.4473 15.0356 25.4133 15.1951 25.3688C15.3666 25.3102 15.5309 25.2398 15.6988 25.1742C15.8248 25.1355 15.9447 25.0828 16.0599 25.0195C16.1918 24.9316 16.3249 24.8438 16.4581 24.7547L16.4605 24.7582C16.5636 24.6891 16.668 24.6211 16.7723 24.552C16.8755 24.4828 16.9702 24.402 17.0542 24.3129C17.1249 24.2391 17.1873 24.157 17.2617 24.0867C17.3336 24.0105 17.4008 23.9297 17.4644 23.8453C17.2629 23.7035 17.0806 23.5383 16.9198 23.3531L16.9186 23.3543Z" fill="url(#paint26_linear_1_4)" stroke="#EDEDED" stroke-miterlimit="10"/>
<path d="M8.68471 22.8855C8.63913 22.8387 8.62114 22.7742 8.63673 22.7109C8.66552 22.377 8.72909 22.0453 8.92339 21.7547C9.1081 21.4758 9.312 21.2133 9.61544 21.0352C9.78216 20.9379 9.93808 20.8207 10.1252 20.7551C10.5318 20.6109 10.9636 20.5512 11.3942 20.5793C11.6988 20.598 11.9975 20.6637 12.2793 20.775C12.3945 20.8195 12.5036 20.8793 12.602 20.9531C12.7039 21.0328 12.8083 21.109 12.9078 21.191C13.0661 21.3293 13.2029 21.491 13.3108 21.6691C13.4919 21.9516 13.6179 22.2645 13.685 22.5902C13.715 22.7203 13.733 22.8516 13.739 22.9852C13.7498 23.1996 13.727 23.4152 13.6694 23.6238C13.6634 23.6437 13.6419 23.6555 13.6215 23.652C13.6083 23.6496 13.5963 23.6402 13.5903 23.6285C13.5567 23.5488 13.5279 23.4668 13.5051 23.3836C13.4404 23.1457 13.3552 22.9137 13.2497 22.6887C13.1813 22.5504 13.0985 22.4191 13.0026 22.2973C12.7795 21.9914 12.4736 21.7512 12.1186 21.5988C11.9111 21.5027 11.6892 21.4605 11.4733 21.3844C11.3558 21.3422 11.225 21.3598 11.1015 21.3516C10.8017 21.3387 10.503 21.3879 10.2235 21.4957C10.0184 21.5637 9.82774 21.6645 9.65742 21.7945C9.41274 21.9937 9.16567 22.1918 8.97976 22.4473C8.87661 22.5832 8.78786 22.7285 8.68711 22.882L8.68471 22.8855Z" fill="url(#paint27_linear_1_4)" stroke="#EDEDED" stroke-miterlimit="10"/>
<path d="M4.9917 27.6281L5.03847 27.6938C5.24477 28.0488 5.56861 28.2844 5.92003 28.4883C5.99439 28.5234 6.07116 28.5539 6.14912 28.5785C6.20069 28.6008 6.25227 28.6231 6.30264 28.6453C6.32303 28.6512 6.33502 28.6699 6.33382 28.6898C6.33143 28.7109 6.31104 28.7262 6.28945 28.7238C6.14432 28.7402 5.99799 28.7332 5.85646 28.7016C5.54822 28.6219 5.25676 28.4941 4.9929 28.3231C4.80939 28.193 4.63907 28.0477 4.48195 27.8895C4.3752 27.7934 4.28045 27.6867 4.20129 27.5684C4.02138 27.293 3.88705 26.9906 3.80549 26.673C3.71314 26.3027 3.70954 25.9148 3.7935 25.541C3.83068 25.3629 3.87985 25.1883 3.93502 25.0148C3.99979 24.8297 4.09215 24.6551 4.20849 24.4945C4.45197 24.1313 4.7818 23.8289 5.17161 23.6133C5.50984 23.4258 5.87925 23.2957 6.26306 23.2301C6.53772 23.1844 6.81718 23.1867 7.08945 23.2395C7.11703 23.2441 7.14342 23.2512 7.16981 23.2606C7.1818 23.2664 7.1914 23.277 7.19499 23.2887C7.19379 23.3016 7.1854 23.3133 7.17341 23.3191C7.12183 23.3379 7.06786 23.3531 7.01388 23.3648C6.69724 23.4188 6.40339 23.5453 6.10594 23.6613C5.83727 23.7668 5.61778 23.9484 5.3803 24.1008C5.33113 24.1383 5.28675 24.1816 5.24837 24.2297C5.07805 24.3973 4.92693 24.5824 4.79739 24.7828C4.69544 24.9516 4.61748 25.1332 4.56471 25.3207C4.49754 25.5328 4.46276 25.7543 4.46036 25.9758C4.45796 26.1961 4.47835 26.4164 4.52393 26.6332C4.60669 26.9684 4.71463 27.2883 4.94132 27.559C4.96051 27.5813 4.9749 27.6035 4.9905 27.627L4.9917 27.6281Z" fill="url(#paint28_linear_1_4)" stroke="#EDEDED" stroke-miterlimit="10"/>
<path d="M30.0077 35.5699C29.3444 35.7375 28.6704 35.8676 27.9915 35.9578C27.1483 36.0703 26.2931 36.0562 25.4572 35.918C25.1105 35.8523 24.7711 35.7598 24.4413 35.6402C23.8392 35.4223 23.2731 35.1234 22.7597 34.7508C22.5558 34.6102 22.5582 34.5949 22.7333 34.432C23.2347 33.9574 23.7996 33.5508 24.4125 33.2215C24.8719 32.966 25.3588 32.7586 25.8626 32.6027C26.4659 32.4117 27.0907 32.2945 27.7216 32.2512C28.4425 32.2066 29.1645 32.284 29.8554 32.4785C29.9321 32.4902 29.9861 32.5559 29.9813 32.6309C29.9873 32.8172 30.0137 33.0012 30.0221 33.1875C30.0641 33.9094 30.0916 34.6336 30.1276 35.3566C30.1312 35.3777 30.1324 35.3988 30.1336 35.4199C30.142 35.4937 30.0856 35.5605 30.0101 35.5699C30.0101 35.5699 30.0077 35.5699 30.0065 35.5699H30.0077ZM23.9063 34.5C23.9915 34.5586 24.0791 34.6125 24.1702 34.6617C24.4569 34.8023 24.7579 34.9125 25.0698 34.991C25.6287 35.1398 26.2092 35.2102 26.7909 35.1996C27.5417 35.1949 28.2901 35.1023 29.0206 34.9219C29.1369 34.9031 29.2521 34.875 29.3624 34.8352C29.4152 34.8187 29.45 34.7695 29.4476 34.7168C29.426 34.2832 29.4032 33.8496 29.3792 33.416C29.3744 33.3281 29.3132 33.2941 29.2269 33.2883C29.0446 33.2742 28.8623 33.259 28.6812 33.2402C27.8907 33.1641 27.1171 33.2824 26.3471 33.4582C26.0125 33.5414 25.6839 33.6492 25.366 33.7805C25.0194 33.8977 24.6824 34.0406 24.3573 34.207C24.1918 34.2797 24.0383 34.3758 23.9039 34.4941L23.9063 34.5Z" fill="url(#paint29_linear_1_4)"/>
<path d="M27.8667 37.1109C27.8751 37.2176 27.8559 37.3254 27.814 37.4262C27.6844 37.8047 27.4637 38.1492 27.1711 38.4328C26.9996 38.5922 26.8101 38.7328 26.6062 38.85C26.2931 39.0398 25.9573 39.1875 25.6047 39.2918C25.4068 39.3539 25.2005 39.3914 24.9978 39.4359C24.915 39.4453 24.8335 39.4629 24.7543 39.491C24.7279 39.5016 24.7003 39.5063 24.6727 39.5074C24.4808 39.5203 24.2865 39.5355 24.091 39.5414C23.9735 39.5449 23.8559 39.5566 23.7372 39.5578C23.369 39.5566 23.0032 39.525 22.641 39.4652C22.3123 39.416 21.9885 39.3363 21.6766 39.2273C21.5087 39.1676 21.3348 39.1219 21.1693 39.0574C21.0158 38.9977 20.8718 38.918 20.7207 38.8523C20.2554 38.6496 19.8691 38.3344 19.4685 38.0402C19.2778 37.8879 19.1003 37.7191 18.9408 37.5375C18.8149 37.4063 18.6997 37.268 18.581 37.1273C18.5378 37.0758 18.509 37.0137 18.4694 36.9574C18.4287 36.893 18.3495 36.8602 18.2727 36.8754C18.1492 36.8965 18.0245 36.9094 17.8997 36.927C17.7066 36.9539 17.5123 36.9785 17.3204 37.0125C17.0146 37.0676 16.7123 37.0395 16.4077 37.009C16.097 36.9727 15.7936 36.8965 15.5057 36.7828C15.2371 36.6844 14.9588 36.5918 14.7321 36.4078C14.5546 36.3316 14.3915 36.2273 14.25 36.0984C14.0149 35.9145 13.8002 35.7082 13.6083 35.4832C13.3132 35.1059 13.1165 34.6816 12.9366 34.248C12.9246 34.1883 12.8694 34.1461 12.8059 34.1484C12.7219 34.1461 12.6392 34.1484 12.5564 34.159C12.4748 34.1684 12.3933 34.1988 12.3093 34.1742C12.3189 34.1648 12.3273 34.1543 12.3345 34.1426C12.3621 34.084 12.3525 34.0676 12.3033 34.0535C12.2829 34.0477 12.2625 34.0441 12.241 34.0418C12.0622 34.0277 11.8859 33.9902 11.718 33.9305C11.5621 33.8777 11.4098 33.8156 11.2622 33.7453C11.1171 33.6797 11.0116 33.5531 10.8508 33.5168C10.8376 33.5133 10.8257 33.5051 10.8185 33.4934C10.7357 33.3586 10.5726 33.2988 10.491 33.1652C10.3339 33.0563 10.2595 32.8828 10.166 32.7328C10.0748 32.5852 10.0077 32.4246 9.96808 32.2559C9.9381 32.1328 9.88412 32.018 9.86613 31.8902C9.82175 31.5973 9.86493 31.3031 9.89132 31.0102C9.89252 30.9973 9.89612 30.9832 9.90091 30.9715L10.0772 30.4547C10.1264 30.307 10.2032 30.1699 10.3039 30.0492C10.449 29.8758 10.5846 29.6953 10.7249 29.5184C10.7597 29.5254 10.7933 29.5031 10.8005 29.4703C10.8041 29.4668 10.8005 29.4539 10.7957 29.4527C10.7573 29.4363 10.7309 29.4563 10.7057 29.4809C10.7009 29.4855 10.6973 29.4914 10.6937 29.4961C10.6373 29.5371 10.581 29.5746 10.527 29.6168C10.4478 29.666 10.3735 29.7246 10.3075 29.7902C10.1348 30.0082 9.9333 30.2098 9.81936 30.4664C9.75459 30.6141 9.66583 30.7535 9.63105 30.9117C9.55549 31.1906 9.51951 31.4777 9.5243 31.766C9.5243 31.8129 9.50631 31.8586 9.47273 31.8938C9.42715 31.8035 9.41036 31.7016 9.42835 31.6008C9.43795 31.3594 9.47753 31.1203 9.54829 30.8871C9.59147 30.7664 9.62745 30.6434 9.68142 30.5285C9.71861 30.4348 9.76898 30.3445 9.82895 30.2625C9.95249 30.1066 10.0724 29.9496 10.1948 29.7926C10.2571 29.7187 10.3279 29.652 10.4059 29.5934C10.593 29.4516 10.7909 29.325 10.9996 29.2148C11.0679 29.1809 11.1411 29.1574 11.2167 29.1457C11.2634 29.1375 11.3378 29.0977 11.357 29.1598C11.3726 29.2031 11.2922 29.2207 11.2538 29.2441C11.0212 29.3836 10.8197 29.5676 10.6625 29.7832C10.5546 29.9332 10.4322 30.0738 10.3183 30.218C10.2427 30.3152 10.1816 30.4219 10.1396 30.5355C10.0269 30.818 9.95969 31.1145 9.94169 31.4145C9.94169 31.4355 9.9345 31.4555 9.9357 31.4742C9.96688 31.8762 10.0137 32.277 10.2164 32.6367C10.3195 32.8254 10.4502 32.9988 10.605 33.1512C10.7129 33.2543 10.8269 33.3516 10.9468 33.4406C11.2107 33.6352 11.5093 33.7793 11.8296 33.866C12.121 33.9516 12.4233 34.002 12.7279 34.0172C12.8071 34.0207 12.8215 34.0043 12.8383 33.9293C12.8479 33.8695 12.8467 33.8086 12.8347 33.75C12.8131 33.5836 12.7963 33.4172 12.7663 33.252C12.7351 33.0469 12.7207 32.8395 12.7231 32.632C12.7207 32.2898 12.7915 31.95 12.9306 31.6336C12.939 31.616 12.9546 31.602 12.9738 31.5949C13.0062 31.5902 13.0194 31.6172 13.0254 31.6441C13.053 31.7824 13.0565 31.9242 13.035 32.0637C13.0242 32.25 13.0278 32.4375 13.0458 32.6238C13.0577 32.7645 13.0841 32.9027 13.1273 33.0375C13.1957 33.2824 13.2772 33.5238 13.372 33.7605C13.4476 33.9328 13.5387 34.0969 13.6431 34.2539C13.8146 34.527 14.0137 34.7836 14.238 35.018C14.2667 35.0473 14.2967 35.0742 14.3303 35.0988C14.5774 35.3016 14.8365 35.4914 15.1063 35.666C15.2227 35.7363 15.3462 35.7961 15.4733 35.8465C15.8044 35.9988 16.1558 36.1055 16.518 36.1629C16.8742 36.2191 17.2353 36.2367 17.5963 36.2156C17.7138 36.2098 17.8302 36.191 17.9441 36.1605C18.0293 36.1336 18.0461 36.116 18.0293 36.0305C18.0089 35.9191 17.9789 35.809 17.9561 35.6977C17.8889 35.4047 17.8721 35.1023 17.9069 34.8023C17.9369 34.6254 17.9981 34.4543 18.0904 34.2961C18.1264 34.323 18.1204 34.3676 18.124 34.4027C18.148 34.609 18.1624 34.8129 18.1888 35.0215C18.2032 35.1469 18.2116 35.2723 18.2332 35.3965C18.3051 35.8184 18.5162 36.1734 18.7597 36.5156C18.7945 36.5637 18.8293 36.6129 18.8628 36.6645C18.9108 36.7453 18.9708 36.8191 19.0416 36.8836C19.1027 36.9375 19.1591 36.9949 19.2107 37.057C19.5165 37.3957 19.8931 37.6559 20.2673 37.9172C20.4053 38.0051 20.548 38.0836 20.6967 38.1527C20.867 38.2406 21.035 38.3332 21.2089 38.4117C21.6598 38.6133 22.1336 38.7656 22.6218 38.8641C22.8796 38.9133 23.1399 38.9508 23.4014 38.9742C23.6904 39.0023 23.9819 39.0082 24.2721 38.9918C24.5684 38.9742 24.8682 38.9777 25.1609 38.8875C25.3048 38.843 25.4583 38.8207 25.6047 38.7785C25.9705 38.6672 26.3219 38.5125 26.6482 38.3156C26.9228 38.1551 27.1759 37.9629 27.4014 37.7426C27.5489 37.6078 27.67 37.4473 27.7588 37.2715C27.7888 37.2187 27.8236 37.1684 27.8619 37.1203L27.8679 37.1074L27.8667 37.1109Z" fill="url(#paint30_linear_1_4)" stroke="#EDEDED" stroke-miterlimit="10"/>
<path d="M27.2503 31.309C27.2742 31.3231 27.297 31.3371 27.3198 31.3512C27.3582 31.2422 27.3954 31.132 27.435 31.0231C27.4649 30.927 27.4829 30.8273 27.4877 30.7266C27.5009 30.6012 27.4949 30.4734 27.4961 30.3469C27.4865 30.1055 27.447 29.8676 27.3762 29.6367C27.3594 29.5371 27.3102 29.4457 27.2371 29.3742C27.2167 29.4176 27.2143 29.4668 27.2299 29.5102C27.3282 29.7809 27.3894 30.0621 27.4098 30.3492C27.429 30.5086 27.3906 30.668 27.3774 30.8273C27.363 30.9949 27.3114 31.1531 27.2526 31.309H27.2503Z" fill="url(#paint31_linear_1_4)" stroke="#EDEDED" stroke-miterlimit="10"/>
<path d="M17.2735 27.7453C17.2459 27.6199 17.2256 27.4922 17.2136 27.3621C17.2112 27.3621 17.21 27.3633 17.2076 27.3645C17.1392 27.4031 17.0528 27.3961 16.9929 27.3469C16.9377 27.3059 16.8897 27.2566 16.831 27.2203C16.6714 27.1242 16.5167 27.0281 16.3536 26.9426C16.1413 26.8195 15.917 26.7141 15.6855 26.6285C15.207 26.4738 14.7356 26.2945 14.2259 26.2453C14.0603 26.2301 13.8972 26.1984 13.7317 26.1891C13.5518 26.1785 13.3719 26.1891 13.192 26.1832C12.8585 26.1762 12.5251 26.1996 12.1953 26.2535C11.8307 26.3074 11.4721 26.3895 11.1207 26.5008C11.0079 26.5383 10.8988 26.5863 10.7884 26.625C10.6037 26.6906 10.425 26.7633 10.2463 26.8348C10.2199 26.8441 10.1959 26.8582 10.1743 26.8758C10.1084 26.9262 10.0364 26.9684 9.96083 27.0023C9.78212 27.1066 9.59742 27.2051 9.4295 27.3246C9.12845 27.5309 8.85619 27.7734 8.6211 28.0477C8.46518 28.2211 8.33085 28.4109 8.2205 28.6137C8.0346 28.9711 7.93864 29.3637 7.93984 29.7609C7.93145 29.8687 7.94944 29.9754 7.99262 30.075V30.0609C8.01541 30.0047 8.0322 29.9461 8.04299 29.8863C8.06938 29.693 8.13175 29.5043 8.2277 29.332C8.37043 29.0555 8.54794 28.7965 8.75544 28.5609C9.00251 28.2762 9.28437 28.0219 9.59742 27.8051C9.72335 27.7207 9.86128 27.6516 9.98482 27.566C10.2331 27.3914 10.5198 27.3023 10.7968 27.1957C11.0679 27.0902 11.3473 27.007 11.6316 26.9461C11.8895 26.8887 12.1485 26.8441 12.4112 26.8113C12.9089 26.7551 13.4103 26.7539 13.9068 26.8066C14.0987 26.8277 14.2894 26.8629 14.4801 26.8945C14.6444 26.9145 14.8076 26.9449 14.9671 26.9859C15.4097 27.1184 15.8534 27.2484 16.2564 27.4746C16.326 27.5168 16.3992 27.5543 16.4747 27.5871C16.5635 27.6258 16.645 27.6773 16.717 27.7395C16.765 27.777 16.8142 27.8133 16.8645 27.8484C16.9845 27.9352 17.1008 28.0242 17.2112 28.1203C17.2304 28.0488 17.2543 27.9785 17.2795 27.9082C17.2771 27.8812 17.2747 27.8531 17.2735 27.8262C17.2723 27.7992 17.2735 27.7723 17.2735 27.7453Z" fill="url(#paint32_linear_1_4)" stroke="#EDEDED" stroke-miterlimit="10"/>
<path d="M27.1291 30.3738C27.1291 30.3609 27.1279 30.3469 27.1255 30.334C27.0548 30.0492 26.9984 29.7586 26.8593 29.4961C26.7993 29.3812 26.7105 29.2887 26.641 29.182C26.5474 29.0355 26.4311 28.9043 26.2943 28.793C26.1552 28.6805 26.0281 28.5387 25.8422 28.4848C25.7498 28.4086 25.6275 28.3863 25.5207 28.3359C25.5207 28.3699 25.5207 28.4039 25.5195 28.4379C25.5939 28.4672 25.6683 28.4988 25.7414 28.5328C25.9393 28.6289 26.1204 28.752 26.2812 28.8996C26.593 29.1773 26.7693 29.5406 26.9312 29.9109C26.9384 29.9285 26.9384 29.9496 26.9444 29.9695C27.0272 30.259 27.0608 30.559 27.0464 30.8602C27.044 30.9703 27.0248 31.0781 26.9912 31.1836C27.026 31.1977 27.0596 31.2129 27.0943 31.2293C27.1207 31.1273 27.1339 31.023 27.1327 30.9176L27.1291 30.375V30.3738Z" fill="url(#paint33_linear_1_4)" stroke="#EDEDED" stroke-miterlimit="10"/>
<path d="M75.2648 40.6875C75.0729 40.6875 74.8522 40.6547 74.6027 40.5891C74.3532 40.5328 74.1085 40.4344 73.8687 40.2937C73.6384 40.1531 73.4465 39.9469 73.2929 39.675C73.1394 39.4031 73.0627 39.0562 73.0627 38.6344H73.6672C73.6672 38.85 73.7103 39.075 73.7967 39.3094C73.883 39.5344 74.0414 39.7266 74.2717 39.8859C74.5115 40.0453 74.8426 40.125 75.2648 40.125C75.7925 40.125 76.1811 39.9891 76.4306 39.7172C76.6896 39.4453 76.8192 38.9953 76.8192 38.3672V32.8828H77.4669V38.3109C77.4669 38.6859 77.4237 39.0234 77.3373 39.3234C77.251 39.6141 77.1166 39.8625 76.9343 40.0687C76.7616 40.275 76.5361 40.4297 76.2579 40.5328C75.9892 40.6359 75.6582 40.6875 75.2648 40.6875ZM75.2504 33.1781V32.6437H77.4669V33.1781H75.2504ZM89.9034 40.7437C88.8576 40.7437 88.0468 40.4344 87.471 39.8156C86.8953 39.1875 86.6075 38.3062 86.6075 37.1719V32.6297H87.2695V37.1719C87.2695 37.6687 87.3319 38.1047 87.4567 38.4797C87.5814 38.8453 87.7589 39.1547 87.9892 39.4078C88.2195 39.6516 88.4977 39.8344 88.824 39.9562C89.1502 40.0781 89.51 40.1391 89.9034 40.1391C90.4791 40.1391 90.9589 40.0312 91.3427 39.8156C91.7361 39.6 92.0336 39.2719 92.2351 38.8312C92.4462 38.3906 92.5517 37.8375 92.5517 37.1719V32.6297H93.1994V37.1719C93.1994 38.325 92.9163 39.2109 92.3502 39.8297C91.7937 40.4391 90.9781 40.7437 89.9034 40.7437ZM108.217 32.6297H108.864V40.5469H107.655L102.992 32.925H102.963V40.5469H102.316V32.6297H103.453L108.188 40.2516H108.217V32.6297ZM119.146 40.2937V32.8828H119.793V40.2937H119.146ZM118.009 40.5469V39.9844H120.916V40.5469H118.009ZM118.009 33.2062V32.6297H120.916V33.2062H118.009ZM133.557 40.7437C132.29 40.7437 131.326 40.3734 130.664 39.6328C130.002 38.8828 129.671 37.875 129.671 36.6094C129.671 35.775 129.815 35.0531 130.103 34.4437C130.39 33.825 130.822 33.3469 131.398 33.0094C131.974 32.6625 132.693 32.4891 133.557 32.4891C134.823 32.4891 135.783 32.8641 136.435 33.6141C137.097 34.3547 137.428 35.3531 137.428 36.6094C137.428 37.425 137.28 38.1469 136.982 38.775C136.694 39.3937 136.263 39.8766 135.687 40.2234C135.121 40.5703 134.411 40.7437 133.557 40.7437ZM133.557 40.1391C134.276 40.1391 134.871 39.9937 135.342 39.7031C135.821 39.4031 136.181 38.9906 136.421 38.4656C136.67 37.9312 136.795 37.3125 136.795 36.6094C136.795 35.8969 136.675 35.2781 136.435 34.7531C136.205 34.2281 135.845 33.8203 135.356 33.5297C134.876 33.2391 134.276 33.0937 133.557 33.0937C132.492 33.0937 131.686 33.4031 131.139 34.0219C130.592 34.6406 130.318 35.5031 130.318 36.6094C130.318 37.3031 130.434 37.9172 130.664 38.4516C130.894 38.9766 131.249 39.3891 131.729 39.6891C132.218 39.9891 132.828 40.1391 133.557 40.1391ZM146.404 40.5469V32.6297H148.922C149.604 32.6297 150.179 32.6953 150.649 32.8266C151.12 32.9578 151.475 33.1828 151.715 33.5016C151.964 33.8203 152.089 34.2703 152.089 34.8516C152.089 35.2078 152.022 35.5406 151.887 35.85C151.753 36.1594 151.542 36.4125 151.254 36.6094C150.976 36.7969 150.611 36.8906 150.16 36.8906C150.534 36.8906 150.827 36.9609 151.038 37.1016C151.249 37.2328 151.398 37.4062 151.484 37.6219C151.58 37.8375 151.638 38.0719 151.657 38.325C151.686 38.5781 151.7 38.8266 151.7 39.0703C151.7 39.3141 151.715 39.5297 151.743 39.7172C151.772 39.9047 151.839 40.0359 151.945 40.1109C152.05 40.1859 152.218 40.1859 152.449 40.1109V40.575C152.401 40.6125 152.305 40.6453 152.161 40.6734C152.026 40.7016 151.878 40.6922 151.715 40.6453C151.551 40.5984 151.412 40.4906 151.297 40.3219C151.182 40.1531 151.124 39.8953 151.124 39.5484C151.124 39.0047 151.1 38.5687 151.052 38.2406C151.014 37.9125 150.923 37.6641 150.779 37.4953C150.645 37.3266 150.429 37.2094 150.131 37.1437C149.834 37.0781 149.436 37.0453 148.937 37.0453C148.447 37.0453 147.824 37.05 147.066 37.0594V40.5469H146.404ZM147.066 36.5391H149.181C149.709 36.5391 150.141 36.4922 150.477 36.3984C150.822 36.2953 151.076 36.1266 151.24 35.8922C151.412 35.6484 151.499 35.3109 151.499 34.8797C151.499 34.3828 151.393 34.0172 151.182 33.7828C150.971 33.5391 150.669 33.3797 150.275 33.3047C149.882 33.2297 149.402 33.1922 148.836 33.1922H147.066V36.5391Z" fill="#252525"/>
</g>
<defs>
<linearGradient id="paint0_linear_1_4" x1="37.1345" y1="15.4828" x2="67.7528" y2="15.4828" gradientUnits="userSpaceOnUse">
<stop stop-color="#E30613"/>
<stop offset="1" stop-color="#BE1622"/>
</linearGradient>
<linearGradient id="paint1_linear_1_4" x1="63.688" y1="15.1078" x2="94.0401" y2="15.1078" gradientUnits="userSpaceOnUse">
<stop stop-color="#E30613"/>
<stop offset="1" stop-color="#BE1622"/>
</linearGradient>
<linearGradient id="paint2_linear_1_4" x1="90.887" y1="15.5063" x2="119.424" y2="15.5063" gradientUnits="userSpaceOnUse">
<stop stop-color="#E30613"/>
<stop offset="1" stop-color="#BE1622"/>
</linearGradient>
<linearGradient id="paint3_linear_1_4" x1="116.53" y1="15.5063" x2="139.839" y2="15.5063" gradientUnits="userSpaceOnUse">
<stop stop-color="#E30613"/>
<stop offset="1" stop-color="#BE1622"/>
</linearGradient>
<linearGradient id="paint4_linear_1_4" x1="136.253" y1="15.5062" x2="159.989" y2="15.5062" gradientUnits="userSpaceOnUse">
<stop stop-color="#E30613"/>
<stop offset="1" stop-color="#BE1622"/>
</linearGradient>
<linearGradient id="paint5_linear_1_4" x1="23.87" y1="19.7634" x2="23.9139" y2="19.8801" gradientUnits="userSpaceOnUse">
<stop stop-color="#E30613"/>
<stop offset="1" stop-color="#BE1622"/>
</linearGradient>
<linearGradient id="paint6_linear_1_4" x1="17.282" y1="15.45" x2="44.2997" y2="15.45" gradientUnits="userSpaceOnUse">
<stop stop-color="#E30613"/>
<stop offset="1" stop-color="#BE1622"/>
</linearGradient>
<linearGradient id="paint7_linear_1_4" x1="11.3745" y1="12.8971" x2="12.3565" y2="15.51" gradientUnits="userSpaceOnUse">
<stop stop-color="#E30613"/>
<stop offset="1" stop-color="#BE1622"/>
</linearGradient>
<linearGradient id="paint8_linear_1_4" x1="9.4959" y1="14.4871" x2="9.56785" y2="14.6785" gradientUnits="userSpaceOnUse">
<stop stop-color="#E30613"/>
<stop offset="1" stop-color="#BE1622"/>
</linearGradient>
<linearGradient id="paint9_linear_1_4" x1="12.2561" y1="23.9854" x2="12.2623" y2="24.0019" gradientUnits="userSpaceOnUse">
<stop stop-color="#E30613"/>
<stop offset="1" stop-color="#BE1622"/>
</linearGradient>
<linearGradient id="paint10_linear_1_4" x1="14.6113" y1="14.6525" x2="14.6477" y2="14.7493" gradientUnits="userSpaceOnUse">
<stop stop-color="#E30613"/>
<stop offset="1" stop-color="#BE1622"/>
</linearGradient>
<linearGradient id="paint11_linear_1_4" x1="10.7048" y1="13.0471" x2="11.0294" y2="13.9106" gradientUnits="userSpaceOnUse">
<stop stop-color="#E30613"/>
<stop offset="1" stop-color="#BE1622"/>
</linearGradient>
<linearGradient id="paint12_linear_1_4" x1="43.1652" y1="25.4228" x2="47.9832" y2="38.2421" gradientUnits="userSpaceOnUse">
<stop stop-color="#E30613"/>
<stop offset="1" stop-color="#BE1622"/>
</linearGradient>
<linearGradient id="paint13_linear_1_4" x1="41.1923" y1="26.7832" x2="45.2627" y2="37.6134" gradientUnits="userSpaceOnUse">
<stop stop-color="#E30613"/>
<stop offset="1" stop-color="#BE1622"/>
</linearGradient>
<linearGradient id="paint14_linear_1_4" x1="47.5195" y1="29.7909" x2="49.0089" y2="33.7538" gradientUnits="userSpaceOnUse">
<stop stop-color="#E30613"/>
<stop offset="1" stop-color="#BE1622"/>
</linearGradient>
<linearGradient id="paint15_linear_1_4" x1="30.6118" y1="31.4366" x2="32.501" y2="36.4633" gradientUnits="userSpaceOnUse">
<stop stop-color="#E30613"/>
<stop offset="1" stop-color="#BE1622"/>
</linearGradient>
<linearGradient id="paint16_linear_1_4" x1="31.2247" y1="31.4034" x2="31.5009" y2="32.1383" gradientUnits="userSpaceOnUse">
<stop stop-color="#E30613"/>
<stop offset="1" stop-color="#BE1622"/>
</linearGradient>
<linearGradient id="paint17_linear_1_4" x1="31.2962" y1="32.3784" x2="31.5856" y2="33.1485" gradientUnits="userSpaceOnUse">
<stop stop-color="#E30613"/>
<stop offset="1" stop-color="#BE1622"/>
</linearGradient>
<linearGradient id="paint18_linear_1_4" x1="31.3664" y1="33.3955" x2="31.6558" y2="34.1656" gradientUnits="userSpaceOnUse">
<stop stop-color="#E30613"/>
<stop offset="1" stop-color="#BE1622"/>
</linearGradient>
<linearGradient id="paint19_linear_1_4" x1="31.4492" y1="34.448" x2="31.7387" y2="35.2181" gradientUnits="userSpaceOnUse">
<stop stop-color="#E30613"/>
<stop offset="1" stop-color="#BE1622"/>
</linearGradient>
<linearGradient id="paint20_linear_1_4" x1="31.532" y1="35.5004" x2="31.8214" y2="36.2705" gradientUnits="userSpaceOnUse">
<stop stop-color="#E30613"/>
<stop offset="1" stop-color="#BE1622"/>
</linearGradient>
<linearGradient id="paint21_linear_1_4" x1="34.46" y1="35.7434" x2="36.3215" y2="40.6964" gradientUnits="userSpaceOnUse">
<stop stop-color="#E30613"/>
<stop offset="1" stop-color="#BE1622"/>
</linearGradient>
<linearGradient id="paint22_linear_1_4" x1="35.0328" y1="36.1508" x2="36.4176" y2="39.8354" gradientUnits="userSpaceOnUse">
<stop stop-color="#E30613"/>
<stop offset="1" stop-color="#BE1622"/>
</linearGradient>
<linearGradient id="paint23_linear_1_4" x1="32.7333" y1="24.5585" x2="34.5129" y2="29.2936" gradientUnits="userSpaceOnUse">
<stop stop-color="#E30613"/>
<stop offset="1" stop-color="#BE1622"/>
</linearGradient>
<linearGradient id="paint24_linear_1_4" x1="33.3716" y1="25.0669" x2="34.7646" y2="28.7734" gradientUnits="userSpaceOnUse">
<stop stop-color="#E30613"/>
<stop offset="1" stop-color="#BE1622"/>
</linearGradient>
<linearGradient id="paint25_linear_1_4" x1="5.47444" y1="15.4359" x2="9.14333" y2="25.1979" gradientUnits="userSpaceOnUse">
<stop stop-color="#E30613"/>
<stop offset="1" stop-color="#BE1622"/>
</linearGradient>
<linearGradient id="paint26_linear_1_4" x1="12.6376" y1="16.272" x2="15.9505" y2="25.0867" gradientUnits="userSpaceOnUse">
<stop stop-color="#E30613"/>
<stop offset="1" stop-color="#BE1622"/>
</linearGradient>
<linearGradient id="paint27_linear_1_4" x1="10.3786" y1="20.6592" x2="11.7679" y2="24.3558" gradientUnits="userSpaceOnUse">
<stop stop-color="#E30613"/>
<stop offset="1" stop-color="#BE1622"/>
</linearGradient>
<linearGradient id="paint28_linear_1_4" x1="4.96369" y1="23.6536" x2="6.79876" y2="28.5362" gradientUnits="userSpaceOnUse">
<stop stop-color="#E30613"/>
<stop offset="1" stop-color="#BE1622"/>
</linearGradient>
<linearGradient id="paint29_linear_1_4" x1="25.8898" y1="32.5772" x2="27.3867" y2="36.5599" gradientUnits="userSpaceOnUse">
<stop stop-color="#E30613"/>
<stop offset="1" stop-color="#BE1622"/>
</linearGradient>
<linearGradient id="paint30_linear_1_4" x1="15.8601" y1="27.3819" x2="20.992" y2="41.0362" gradientUnits="userSpaceOnUse">
<stop stop-color="#E30613"/>
<stop offset="1" stop-color="#BE1622"/>
</linearGradient>
<linearGradient id="paint31_linear_1_4" x1="26.9294" y1="29.4895" x2="27.5911" y2="31.2498" gradientUnits="userSpaceOnUse">
<stop stop-color="#E30613"/>
<stop offset="1" stop-color="#BE1622"/>
</linearGradient>
<linearGradient id="paint32_linear_1_4" x1="11.649" y1="26.3014" x2="15.1826" y2="35.7037" gradientUnits="userSpaceOnUse">
<stop stop-color="#E30613"/>
<stop offset="1" stop-color="#BE1622"/>
</linearGradient>
<linearGradient id="paint33_linear_1_4" x1="23.4041" y1="21.8835" x2="26.9378" y2="31.2856" gradientUnits="userSpaceOnUse">
<stop stop-color="#E30613"/>
<stop offset="1" stop-color="#BE1622"/>
</linearGradient>
<clipPath id="clip0_1_4">
<rect width="160" height="45" fill="white"/>
</clipPath>
</defs>
</svg>
