<svg width="154" height="47" viewBox="0 0 154 47" fill="none" xmlns="http://www.w3.org/2000/svg">
<g clip-path="url(#clip0_141_70)">
<path d="M16.414 -0.000244141C16.8897 0.394734 17.327 0.805878 17.7445 1.26189C17.8009 1.32302 17.8572 1.38415 17.9152 1.44713C18.3115 1.88077 18.6909 2.32515 19.058 2.78399C19.2412 3.01187 19.4265 3.23697 19.6144 3.46092C20.2877 4.26499 20.931 5.08351 21.5477 5.93176C21.9189 6.44211 22.2977 6.94552 22.6829 7.44538C23.3782 8.34755 24.0388 9.26537 24.675 10.2099C24.9381 10.6003 25.2095 10.9837 25.4852 11.3652C25.9956 12.074 26.4797 12.7987 26.9588 13.5289C27.0079 13.6035 27.057 13.6781 27.1076 13.755C28.9483 16.5552 30.6591 19.4228 32.2311 22.3825C32.2816 22.4772 32.3322 22.5719 32.3842 22.6695C33.3537 24.4915 34.2768 26.3386 35.0974 28.2331C35.1316 28.3103 35.1658 28.3875 35.201 28.4671C35.3574 28.8375 35.4487 29.0622 35.315 29.4455C35.2155 29.5449 35.2155 29.5449 34.9314 29.5783C34.6186 29.5449 34.6186 29.5449 34.4391 29.3652C34.3899 29.281 34.3406 29.1968 34.2899 29.1101C34.2327 29.0153 34.1756 28.9205 34.1167 28.8228C34.0567 28.7184 33.9966 28.6141 33.9347 28.5066C33.8016 28.2848 33.6683 28.063 33.5349 27.8414C33.4662 27.726 33.3976 27.6106 33.329 27.4951C33.0203 26.9805 32.6983 26.4749 32.3741 25.9699C32.2777 25.8193 32.2777 25.8193 32.1794 25.6656C31.3787 24.4199 30.5535 23.1904 29.7294 21.9601C29.403 21.4728 29.0779 20.9845 28.7533 20.4959C26.4768 17.0709 24.0646 13.7387 21.5632 10.4749C21.4123 10.2778 21.2618 10.0804 21.1117 9.88273C20.4593 9.0273 19.7816 8.19343 19.0999 7.36118C19.0183 8.1389 18.9805 8.91084 18.9665 9.69249C18.9641 9.81165 18.9616 9.9308 18.9591 10.0536C18.9524 10.379 18.9461 10.7045 18.9399 11.0299C18.9332 11.377 18.926 11.7241 18.9188 12.0712C18.9097 12.5113 18.9006 12.9514 18.8917 13.3915C18.7301 21.3791 18.5353 29.3614 17.844 37.7706C17.8384 37.8394 17.8328 37.9081 17.827 37.979C17.8116 38.1649 17.7948 38.3507 17.778 38.5365C17.769 38.6362 17.7601 38.7359 17.7509 38.8387C17.7077 39.0924 17.6366 39.2713 17.5083 39.4928C17.0068 33.9002 16.702 28.2924 16.5135 22.6809C16.506 22.4636 16.4985 22.2463 16.491 22.029C16.4599 21.0858 16.4361 20.1426 16.414 19.1991C16.4109 19.0673 16.4109 19.0673 16.4078 18.9328C16.3228 15.2653 16.2986 11.5992 16.3018 7.93094C16.3022 7.36626 16.3019 6.80158 16.3014 6.2369C16.3009 5.68071 16.3009 5.12452 16.3011 4.56833C16.3013 4.24116 16.3013 3.91399 16.301 3.58682C16.3007 3.22627 16.3011 2.86571 16.3017 2.50516C16.3015 2.40104 16.3013 2.29693 16.3011 2.18965C16.3031 1.45598 16.3492 0.730467 16.414 -0.000244141Z" fill="white"/>
<path d="M143.448 15.5181C143.908 15.5181 144.368 15.5181 144.841 15.5181C146.016 18.5181 147.178 21.5229 148.337 24.5291C148.802 25.7367 149.268 26.9443 149.734 28.1519C149.779 28.2688 149.824 28.3857 149.871 28.5061C150.601 30.3995 151.334 32.2919 152.069 34.1835C152.245 34.6354 152.42 35.0875 152.595 35.5397C152.668 35.7283 152.741 35.9167 152.814 36.1051C152.927 36.3952 153.039 36.6855 153.151 36.9759C153.186 37.0646 153.221 37.1532 153.256 37.2445C153.288 37.3263 153.319 37.4082 153.352 37.4925C153.38 37.5643 153.408 37.6362 153.436 37.7103C153.496 37.9008 153.496 37.9008 153.496 38.1992C152.741 38.1992 151.986 38.1992 151.208 38.1992C150.76 37.3039 150.76 37.3039 150.582 36.8747C150.521 36.7294 150.521 36.7294 150.46 36.5812C150.398 36.4327 150.398 36.4327 150.336 36.2811C150.297 36.1881 150.258 36.095 150.218 35.9991C150.075 35.6549 149.933 35.3105 149.79 34.9662C149.47 34.1947 149.15 33.4232 148.82 32.6284C145.702 32.5956 142.583 32.5627 139.37 32.5289C139.337 32.6931 139.304 32.8572 139.27 33.0263C139.221 33.1621 139.169 33.2965 139.112 33.4291C139.079 33.5049 139.047 33.5807 139.014 33.6587C138.979 33.7395 138.944 33.8202 138.908 33.9034C138.872 33.9882 138.836 34.0729 138.798 34.1603C138.683 34.4312 138.566 34.7018 138.45 34.9724C138.373 35.1517 138.296 35.331 138.219 35.5104C138.107 35.7712 137.996 36.0321 137.884 36.2928C137.612 36.9265 137.345 37.562 137.082 38.1992C136.294 38.1992 135.506 38.1992 134.694 38.1992C135.03 37.0801 135.03 37.0801 135.172 36.7167C135.22 36.5923 135.22 36.5923 135.269 36.4653C135.303 36.3784 135.337 36.2915 135.372 36.2019C135.409 36.1076 135.446 36.0133 135.483 35.9162C135.603 35.6077 135.724 35.2993 135.844 34.991C135.93 34.7726 136.015 34.5543 136.1 34.3359C136.36 33.667 136.621 32.9985 136.883 32.33C136.942 32.1795 136.942 32.1795 137.002 32.026C137.334 31.1765 137.666 30.327 137.999 29.4778C138.546 28.0816 139.089 26.6839 139.631 25.2856C140.894 22.0259 142.164 18.7695 143.448 15.5181ZM144.045 19.9946C144.02 20.0647 143.994 20.1349 143.968 20.2071C143.694 20.9574 143.42 21.7077 143.147 22.4579C143.041 22.7464 142.936 23.0349 142.831 23.3233C141.8 26.1503 141.8 26.1503 141.295 27.5126C141.262 27.6025 141.229 27.6924 141.194 27.7849C141.045 28.1895 140.894 28.5939 140.744 28.9981C140.692 29.1374 140.64 29.2766 140.589 29.4159C140.523 29.5921 140.523 29.5921 140.456 29.7718C140.354 30.0258 140.354 30.0258 140.365 30.2409C142.827 30.2409 145.289 30.2409 147.825 30.2409C147.322 28.7301 146.813 27.2276 146.265 25.7333C146.196 25.5456 146.128 25.3579 146.059 25.1701C145.428 23.4424 144.788 21.7177 144.145 19.9946C144.112 19.9946 144.079 19.9946 144.045 19.9946Z" fill="white"/>
<path d="M114.898 15.4189C118.673 15.4189 122.448 15.4189 126.338 15.4189C126.338 16.174 126.338 16.929 126.338 17.707C123.318 17.707 120.298 17.707 117.186 17.707C117.186 20.1691 117.186 22.6312 117.186 25.1679C120.206 25.1679 123.226 25.1679 126.338 25.1679C126.338 25.9229 126.338 26.6779 126.338 27.4559C123.318 27.4559 120.298 27.4559 117.186 27.4559C117.186 30.2462 117.186 33.0366 117.186 35.9116C120.206 35.9116 123.226 35.9116 126.338 35.9116C126.338 36.6666 126.338 37.4216 126.338 38.1996C122.563 38.1996 118.788 38.1996 114.898 38.1996C114.898 30.682 114.898 23.1644 114.898 15.4189Z" fill="white"/>
<path d="M68.0435 15.4189C71.8187 15.4189 75.5939 15.4189 79.4835 15.4189C79.4835 16.174 79.4835 16.929 79.4835 17.707C76.4305 17.707 73.3775 17.707 70.232 17.707C70.232 20.1691 70.232 22.6312 70.232 25.1679C73.285 25.1679 76.338 25.1679 79.4835 25.1679C79.4835 25.9229 79.4835 26.6779 79.4835 27.4559C76.4305 27.4559 73.3775 27.4559 70.232 27.4559C70.232 30.2462 70.232 33.0366 70.232 35.9116C73.285 35.9116 76.338 35.9116 79.4835 35.9116C79.4835 36.6666 79.4835 37.4216 79.4835 38.1996C75.7083 38.1996 71.9331 38.1996 68.0435 38.1996C68.0435 30.682 68.0435 23.1644 68.0435 15.4189Z" fill="white"/>
<path d="M9.64947 23.8745C9.77313 24.2455 9.71296 24.3071 9.543 24.6482C9.49554 24.7449 9.44809 24.8416 9.3992 24.9413C9.34637 25.0468 9.29355 25.1523 9.23912 25.261C9.12694 25.4903 9.0149 25.7197 8.90299 25.9492C8.84431 26.0689 8.78561 26.1887 8.72691 26.3084C6.69288 30.4725 5.01133 34.7947 3.30074 39.0984C3.12393 39.5432 2.94697 39.988 2.7699 40.4327C2.73593 40.518 2.70197 40.6033 2.66698 40.6911C2.09593 42.1239 1.5071 43.5481 0.895344 44.964C0.972862 44.9019 1.05038 44.8397 1.13025 44.7757C3.92317 42.5456 7.46734 42.2985 10.9042 42.6313C12.5354 42.83 14.1379 43.235 15.7381 43.5988C16.8424 43.8491 17.9454 44.0828 19.0626 44.2676C19.1718 44.2858 19.281 44.3041 19.3935 44.3228C21.0322 44.5819 22.6518 44.7037 24.3101 44.6966C24.3994 44.6965 24.4886 44.6963 24.5805 44.6961C25.8916 44.6916 27.1657 44.6477 28.4509 44.3671C28.5475 44.3464 28.6441 44.3256 28.7436 44.3042C29.3138 44.18 29.8822 44.0495 30.4491 43.9107C30.6395 43.8697 30.6395 43.8697 30.8384 43.8697C30.8384 43.9354 30.8384 44.001 30.8384 44.0687C30.693 44.1823 30.693 44.1823 30.4887 44.3065C30.4141 44.3522 30.3394 44.3979 30.2625 44.445C30.1818 44.4931 30.101 44.5413 30.0177 44.591C29.9354 44.6403 29.8531 44.6897 29.7683 44.7406C27.4967 46.0916 24.9803 46.8503 22.3256 46.8778C22.2073 46.8793 22.2073 46.8793 22.0865 46.8808C18.9551 46.9118 16.0739 46.4553 13.0373 45.7269C10.5194 45.1208 10.5194 45.1208 7.95833 44.765C7.88692 44.7585 7.81551 44.752 7.74194 44.7453C5.29854 44.5338 2.80124 44.6964 0.696386 46.0583C0.529081 46.2225 0.362884 46.388 0.198993 46.5557C0.133337 46.5557 0.067681 46.5557 3.54424e-05 46.5557C-0.13745 41.0739 1.3992 35.7942 3.87971 30.9375C3.91851 30.8614 3.95732 30.7853 3.9973 30.7069C5.34419 28.1057 7.2869 25.6274 9.64947 23.8745Z" fill="white"/>
<path d="M45.064 15.4189C48.5109 15.4189 51.9578 15.4189 55.5092 15.4189C55.5092 16.174 55.5092 16.929 55.5092 17.707C52.8173 17.707 50.1254 17.707 47.352 17.707C47.352 20.1691 47.352 22.6312 47.352 25.1679C50.0439 25.1679 52.7358 25.1679 55.5092 25.1679C55.5092 25.9229 55.5092 26.6779 55.5092 27.4559C52.8173 27.4559 50.1254 27.4559 47.352 27.4559C47.352 31.0013 47.352 34.5467 47.352 38.1996C46.5969 38.1996 45.8419 38.1996 45.064 38.1996C45.064 30.682 45.064 23.1644 45.064 15.4189Z" fill="white"/>
<path d="M100.673 15.4189C101.428 15.4189 102.183 15.4189 102.961 15.4189C102.97 17.7002 102.977 19.9814 102.981 22.2627C102.983 23.322 102.986 24.3814 102.991 25.4407C102.995 26.3647 102.997 27.2886 102.998 28.2126C102.999 28.7013 103 29.1899 103.003 29.6786C103.005 30.1397 103.006 30.6009 103.006 31.0621C103.006 31.2301 103.006 31.3982 103.008 31.5663C103.025 33.5273 102.633 35.195 101.239 36.6569C99.746 38.0445 97.7455 38.485 95.7619 38.4261C94.1871 38.348 92.6299 37.8394 91.421 36.8069C91.6219 36.3675 91.9126 36.0726 92.2479 35.7313C92.3046 35.6705 92.3612 35.6098 92.4195 35.5473C92.8423 35.1167 92.8423 35.1167 93.1747 35.1122C93.4135 35.2165 93.6425 35.3255 93.8707 35.4515C95.1396 36.0972 96.4489 36.1974 97.8203 35.802C98.8808 35.4454 99.7125 34.8076 100.231 33.7976C100.515 33.1903 100.585 32.68 100.589 32.0113C100.589 31.9402 100.59 31.8691 100.59 31.7958C100.592 31.5582 100.593 31.3205 100.593 31.0828C100.594 30.9122 100.595 30.7416 100.596 30.571C100.599 30.1082 100.601 29.6454 100.603 29.1826C100.605 28.6988 100.608 28.215 100.611 27.7312C100.616 26.8152 100.62 25.8992 100.625 24.9832C100.629 23.9403 100.635 22.8974 100.64 21.8545C100.652 19.7093 100.662 17.5641 100.673 15.4189Z" fill="white"/>
<path d="M9.64947 23.8745C9.77313 24.2455 9.71296 24.3071 9.543 24.6482C9.49554 24.7449 9.44809 24.8416 9.3992 24.9413C9.34637 25.0468 9.29355 25.1523 9.23912 25.261C9.12694 25.4903 9.0149 25.7197 8.90299 25.9492C8.84431 26.0689 8.78561 26.1887 8.72691 26.3084C7.18297 29.4692 5.84868 32.7209 4.5438 35.986C4.5071 36.0779 4.47041 36.1697 4.43259 36.2643C4.05966 37.1977 3.68752 38.1314 3.31704 39.0658C2.65469 40.7359 1.99083 42.4046 1.27694 44.0535C1.22662 44.17 1.1763 44.2864 1.12446 44.4064C0.805671 45.1349 0.461919 45.8479 0.0995142 46.5557C0.0666862 46.5557 0.0338582 46.5557 3.54424e-05 46.5557C-0.13745 41.0739 1.3992 35.7942 3.87971 30.9375C3.91851 30.8614 3.95732 30.7853 3.9973 30.7069C5.34419 28.1057 7.2869 25.6274 9.64947 23.8745Z" fill="white"/>
<path d="M30.9566 34.0585C31.0743 34.072 31.1921 34.0855 31.3135 34.0994C31.8143 34.1572 32.3147 34.217 32.8144 34.2843C34.2893 34.4805 35.7408 34.5146 37.2051 34.2202C36.866 35.2337 35.9356 35.8054 35.0243 36.2622C33.6246 36.8089 32.2087 36.737 30.7327 36.7134C27.8451 36.6713 25.1876 36.8716 22.4516 37.8457C22.3547 37.88 22.2579 37.9142 22.1581 37.9495C22.0718 37.9808 21.9855 38.0121 21.8966 38.0444C21.6864 38.0998 21.6864 38.0998 21.4874 38.0004C23.1318 35.7793 24.9786 34.4179 27.7425 33.9754C28.8169 33.8477 29.8871 33.9296 30.9566 34.0585Z" fill="white"/>
</g>
<defs>
<clipPath id="clip0_141_70">
<rect width="153.496" height="46.8545" fill="white"/>
</clipPath>
</defs>
</svg>
