<svg width="33" height="33" viewBox="0 0 33 33" fill="none" xmlns="http://www.w3.org/2000/svg">
<path d="M29.5135 29.1403H2.51355C1.68655 29.1403 1.01355 28.4673 1.01355 27.6403V21.6403C1.01355 21.3643 1.23755 21.1403 1.51355 21.1403C1.78955 21.1403 2.01355 21.3643 2.01355 21.6403V27.6403C2.01355 27.9153 2.23855 28.1403 2.51355 28.1403H29.5135C29.7885 28.1403 30.0135 27.9153 30.0135 27.6403V21.6403C30.0135 21.3643 30.2375 21.1403 30.5135 21.1403C30.7895 21.1403 31.0135 21.3643 31.0135 21.6403V27.6403C31.0135 28.4673 30.3405 29.1403 29.5135 29.1403Z" fill="url(#paint0_linear_437_181)"/>
<path d="M21.5135 6.14026C21.2375 6.14026 21.0135 5.91626 21.0135 5.64026V3.64026C21.0135 3.36526 20.7885 3.14026 20.5135 3.14026H11.5135C11.2385 3.14026 11.0135 3.36526 11.0135 3.64026V5.64026C11.0135 5.91626 10.7895 6.14026 10.5135 6.14026C10.2375 6.14026 10.0135 5.91626 10.0135 5.64026V3.64026C10.0135 2.81326 10.6865 2.14026 11.5135 2.14026H20.5135C21.3405 2.14026 22.0135 2.81326 22.0135 3.64026V5.64026C22.0135 5.91626 21.7895 6.14026 21.5135 6.14026Z" fill="url(#paint1_linear_437_181)"/>
<path d="M27.5135 21.1403H25.5135C25.2375 21.1403 25.0135 20.9163 25.0135 20.6403C25.0135 20.3643 25.2375 20.1403 25.5135 20.1403H27.5135C28.8925 20.1403 30.0135 19.0193 30.0135 17.6403V8.14026H3.51355C3.23755 8.14026 3.01355 7.91626 3.01355 7.64026C3.01355 7.36426 3.23755 7.14026 3.51355 7.14026H30.5135C30.7895 7.14026 31.0135 7.36426 31.0135 7.64026V17.6403C31.0135 19.5703 29.4435 21.1403 27.5135 21.1403Z" fill="url(#paint2_linear_437_181)"/>
<path d="M6.51355 21.1403H4.51355C2.58355 21.1403 1.01355 19.5703 1.01355 17.6403V7.64026C1.01355 7.36426 1.23755 7.14026 1.51355 7.14026C1.78955 7.14026 2.01355 7.36426 2.01355 7.64026V17.6403C2.01355 19.0193 3.13455 20.1403 4.51355 20.1403H6.51355C6.78955 20.1403 7.01355 20.3643 7.01355 20.6403C7.01355 20.9163 6.78955 21.1403 6.51355 21.1403Z" fill="url(#paint3_linear_437_181)"/>
<path d="M19.5135 21.1403H12.5135C12.2375 21.1403 12.0135 20.9163 12.0135 20.6403C12.0135 20.3643 12.2375 20.1403 12.5135 20.1403H19.5135C19.7895 20.1403 20.0135 20.3643 20.0135 20.6403C20.0135 20.9163 19.7895 21.1403 19.5135 21.1403Z" fill="url(#paint4_linear_437_181)"/>
<path d="M9.51355 23.1403C8.68655 23.1403 8.01355 22.4673 8.01355 21.6403V18.6403C8.01355 18.3643 8.23755 18.1403 8.51355 18.1403H10.5135C10.7895 18.1403 11.0135 18.3643 11.0135 18.6403V21.6403C11.0135 22.4673 10.3405 23.1403 9.51355 23.1403ZM9.01355 19.1403V21.6403C9.01355 21.9153 9.23855 22.1403 9.51355 22.1403C9.78855 22.1403 10.0135 21.9153 10.0135 21.6403V19.1403H9.01355Z" fill="url(#paint5_linear_437_181)"/>
<path d="M22.5135 23.1403C21.6865 23.1403 21.0135 22.4673 21.0135 21.6403V18.6403C21.0135 18.3643 21.2375 18.1403 21.5135 18.1403H23.5135C23.7895 18.1403 24.0135 18.3643 24.0135 18.6403V21.6403C24.0135 22.4673 23.3405 23.1403 22.5135 23.1403ZM22.0135 19.1403V21.6403C22.0135 21.9153 22.2385 22.1403 22.5135 22.1403C22.7885 22.1403 23.0135 21.9153 23.0135 21.6403V19.1403H22.0135Z" fill="url(#paint6_linear_437_181)"/>
<defs>
<linearGradient id="paint0_linear_437_181" x1="1.01355" y1="25.1403" x2="31.0135" y2="25.1403" gradientUnits="userSpaceOnUse">
<stop stop-color="#7B0000"/>
<stop offset="1" stop-color="#DB0303"/>
</linearGradient>
<linearGradient id="paint1_linear_437_181" x1="10.0135" y1="4.14026" x2="22.0135" y2="4.14026" gradientUnits="userSpaceOnUse">
<stop stop-color="#7B0000"/>
<stop offset="1" stop-color="#DB0303"/>
</linearGradient>
<linearGradient id="paint2_linear_437_181" x1="3.01355" y1="14.1403" x2="31.0135" y2="14.1403" gradientUnits="userSpaceOnUse">
<stop stop-color="#7B0000"/>
<stop offset="1" stop-color="#DB0303"/>
</linearGradient>
<linearGradient id="paint3_linear_437_181" x1="1.01355" y1="14.1403" x2="7.01355" y2="14.1403" gradientUnits="userSpaceOnUse">
<stop stop-color="#7B0000"/>
<stop offset="1" stop-color="#DB0303"/>
</linearGradient>
<linearGradient id="paint4_linear_437_181" x1="12.0135" y1="20.6403" x2="20.0135" y2="20.6403" gradientUnits="userSpaceOnUse">
<stop stop-color="#7B0000"/>
<stop offset="1" stop-color="#DB0303"/>
</linearGradient>
<linearGradient id="paint5_linear_437_181" x1="8.01355" y1="20.6403" x2="11.0135" y2="20.6403" gradientUnits="userSpaceOnUse">
<stop stop-color="#7B0000"/>
<stop offset="1" stop-color="#DB0303"/>
</linearGradient>
<linearGradient id="paint6_linear_437_181" x1="21.0135" y1="20.6403" x2="24.0135" y2="20.6403" gradientUnits="userSpaceOnUse">
<stop stop-color="#7B0000"/>
<stop offset="1" stop-color="#DB0303"/>
</linearGradient>
</defs>
</svg>
