<svg width="33" height="33" viewBox="0 0 33 33" fill="none" xmlns="http://www.w3.org/2000/svg">
<path d="M7.51355 5.79639C7.78969 5.79639 8.01355 5.57253 8.01355 5.29639C8.01355 5.02024 7.78969 4.79639 7.51355 4.79639C7.23741 4.79639 7.01355 5.02024 7.01355 5.29639C7.01355 5.57253 7.23741 5.79639 7.51355 5.79639Z" fill="url(#paint0_linear_437_192)"/>
<path d="M5.51355 5.79639C5.78969 5.79639 6.01355 5.57253 6.01355 5.29639C6.01355 5.02024 5.78969 4.79639 5.51355 4.79639C5.23741 4.79639 5.01355 5.02024 5.01355 5.29639C5.01355 5.57253 5.23741 5.79639 5.51355 5.79639Z" fill="url(#paint1_linear_437_192)"/>
<path d="M3.51355 5.79639C3.78969 5.79639 4.01355 5.57253 4.01355 5.29639C4.01355 5.02024 3.78969 4.79639 3.51355 4.79639C3.23741 4.79639 3.01355 5.02024 3.01355 5.29639C3.01355 5.57253 3.23741 5.79639 3.51355 5.79639Z" fill="url(#paint2_linear_437_192)"/>
<path d="M30.5135 7.79639H28.5135C28.2375 7.79639 28.0135 7.57239 28.0135 7.29639C28.0135 7.02039 28.2375 6.79639 28.5135 6.79639H30.5135C30.7895 6.79639 31.0135 7.02039 31.0135 7.29639C31.0135 7.57239 30.7895 7.79639 30.5135 7.79639Z" fill="url(#paint3_linear_437_192)"/>
<path d="M13.5135 7.79639H1.51355C1.23755 7.79639 1.01355 7.57239 1.01355 7.29639C1.01355 7.02039 1.23755 6.79639 1.51355 6.79639H13.5135C13.7895 6.79639 14.0135 7.02039 14.0135 7.29639C14.0135 7.57239 13.7895 7.79639 13.5135 7.79639Z" fill="url(#paint4_linear_437_192)"/>
<path d="M6.51355 28.7964H2.51355C1.68655 28.7964 1.01355 28.1234 1.01355 27.2964V4.29639C1.01355 3.46939 1.68655 2.79639 2.51355 2.79639H13.5135C13.7895 2.79639 14.0135 3.02039 14.0135 3.29639C14.0135 3.57239 13.7895 3.79639 13.5135 3.79639H2.51355C2.23755 3.79639 2.01355 4.02139 2.01355 4.29639V27.2964C2.01355 27.5714 2.23755 27.7964 2.51355 27.7964H6.51355C6.78955 27.7964 7.01355 28.0204 7.01355 28.2964C7.01355 28.5724 6.78955 28.7964 6.51355 28.7964Z" fill="url(#paint5_linear_437_192)"/>
<path d="M29.5135 28.7964H5.51355C5.23755 28.7964 5.01355 28.5724 5.01355 28.2964C5.01355 28.0204 5.23755 27.7964 5.51355 27.7964H29.5135C29.7895 27.7964 30.0135 27.5714 30.0135 27.2964V4.29639C30.0135 4.02139 29.7895 3.79639 29.5135 3.79639H28.5135C28.2375 3.79639 28.0135 3.57239 28.0135 3.29639C28.0135 3.02039 28.2375 2.79639 28.5135 2.79639H29.5135C30.3405 2.79639 31.0135 3.46939 31.0135 4.29639V27.2964C31.0135 28.1234 30.3405 28.7964 29.5135 28.7964Z" fill="url(#paint6_linear_437_192)"/>
<path d="M6.51355 16.7964H3.51355C3.23755 16.7964 3.01355 16.5724 3.01355 16.2964C3.01355 16.0204 3.23755 15.7964 3.51355 15.7964H6.51355C6.78955 15.7964 7.01355 16.0204 7.01355 16.2964C7.01355 16.5724 6.78955 16.7964 6.51355 16.7964Z" fill="url(#paint7_linear_437_192)"/>
<path d="M12.5135 10.7964H3.51355C3.23755 10.7964 3.01355 10.5724 3.01355 10.2964C3.01355 10.0204 3.23755 9.79639 3.51355 9.79639H12.5135C12.7895 9.79639 13.0135 10.0204 13.0135 10.2964C13.0135 10.5724 12.7895 10.7964 12.5135 10.7964Z" fill="url(#paint8_linear_437_192)"/>
<path d="M12.5135 12.7964H3.51355C3.23755 12.7964 3.01355 12.5724 3.01355 12.2964C3.01355 12.0204 3.23755 11.7964 3.51355 11.7964H12.5135C12.7895 11.7964 13.0135 12.0204 13.0135 12.2964C13.0135 12.5724 12.7895 12.7964 12.5135 12.7964Z" fill="url(#paint9_linear_437_192)"/>
<path d="M12.5135 14.7964H3.51355C3.23755 14.7964 3.01355 14.5724 3.01355 14.2964C3.01355 14.0204 3.23755 13.7964 3.51355 13.7964H12.5135C12.7895 13.7964 13.0135 14.0204 13.0135 14.2964C13.0135 14.5724 12.7895 14.7964 12.5135 14.7964Z" fill="url(#paint10_linear_437_192)"/>
<path d="M26.5135 23.7964C26.4005 23.7964 26.2875 23.7584 26.1975 23.6834L21.0135 19.4424L15.8295 23.6824C15.6805 23.8054 15.4735 23.8284 15.2985 23.7474C15.1245 23.6654 15.0135 23.4894 15.0135 23.2964V6.29639C15.0135 6.02039 15.2375 5.79639 15.5135 5.79639C15.7895 5.79639 16.0135 6.02039 16.0135 6.29639V22.2414L20.6975 18.4094C20.8815 18.2594 21.1465 18.2594 21.3305 18.4094L26.0135 22.2414V3.29639C26.0135 3.02139 25.7895 2.79639 25.5135 2.79639H16.5135C16.2375 2.79639 16.0135 3.02139 16.0135 3.29639V3.79539C16.0135 4.07139 15.7895 4.29539 15.5135 4.29539C15.2375 4.29539 15.0135 4.07139 15.0135 3.79539V3.29639C15.0135 2.46939 15.6865 1.79639 16.5135 1.79639H25.5135C26.3405 1.79639 27.0135 2.46939 27.0135 3.29639V23.2964C27.0135 23.4894 26.9026 23.6654 26.7276 23.7484C26.6596 23.7804 26.5865 23.7964 26.5135 23.7964Z" fill="url(#paint11_linear_437_192)"/>
<defs>
<linearGradient id="paint0_linear_437_192" x1="7.01355" y1="5.29639" x2="8.01355" y2="5.29639" gradientUnits="userSpaceOnUse">
<stop stop-color="#7B0000"/>
<stop offset="1" stop-color="#DB0303"/>
</linearGradient>
<linearGradient id="paint1_linear_437_192" x1="5.01355" y1="5.29639" x2="6.01355" y2="5.29639" gradientUnits="userSpaceOnUse">
<stop stop-color="#7B0000"/>
<stop offset="1" stop-color="#DB0303"/>
</linearGradient>
<linearGradient id="paint2_linear_437_192" x1="3.01355" y1="5.29639" x2="4.01355" y2="5.29639" gradientUnits="userSpaceOnUse">
<stop stop-color="#7B0000"/>
<stop offset="1" stop-color="#DB0303"/>
</linearGradient>
<linearGradient id="paint3_linear_437_192" x1="28.0135" y1="7.29639" x2="31.0135" y2="7.29639" gradientUnits="userSpaceOnUse">
<stop stop-color="#7B0000"/>
<stop offset="1" stop-color="#DB0303"/>
</linearGradient>
<linearGradient id="paint4_linear_437_192" x1="1.01355" y1="7.29639" x2="14.0135" y2="7.29639" gradientUnits="userSpaceOnUse">
<stop stop-color="#7B0000"/>
<stop offset="1" stop-color="#DB0303"/>
</linearGradient>
<linearGradient id="paint5_linear_437_192" x1="1.01355" y1="15.7964" x2="14.0135" y2="15.7964" gradientUnits="userSpaceOnUse">
<stop stop-color="#7B0000"/>
<stop offset="1" stop-color="#DB0303"/>
</linearGradient>
<linearGradient id="paint6_linear_437_192" x1="5.01355" y1="15.7964" x2="31.0135" y2="15.7964" gradientUnits="userSpaceOnUse">
<stop stop-color="#7B0000"/>
<stop offset="1" stop-color="#DB0303"/>
</linearGradient>
<linearGradient id="paint7_linear_437_192" x1="3.01355" y1="16.2964" x2="7.01355" y2="16.2964" gradientUnits="userSpaceOnUse">
<stop stop-color="#7B0000"/>
<stop offset="1" stop-color="#DB0303"/>
</linearGradient>
<linearGradient id="paint8_linear_437_192" x1="3.01355" y1="10.2964" x2="13.0135" y2="10.2964" gradientUnits="userSpaceOnUse">
<stop stop-color="#7B0000"/>
<stop offset="1" stop-color="#DB0303"/>
</linearGradient>
<linearGradient id="paint9_linear_437_192" x1="3.01355" y1="12.2964" x2="13.0135" y2="12.2964" gradientUnits="userSpaceOnUse">
<stop stop-color="#7B0000"/>
<stop offset="1" stop-color="#DB0303"/>
</linearGradient>
<linearGradient id="paint10_linear_437_192" x1="3.01355" y1="14.2964" x2="13.0135" y2="14.2964" gradientUnits="userSpaceOnUse">
<stop stop-color="#7B0000"/>
<stop offset="1" stop-color="#DB0303"/>
</linearGradient>
<linearGradient id="paint11_linear_437_192" x1="15.0135" y1="12.7964" x2="27.0135" y2="12.7964" gradientUnits="userSpaceOnUse">
<stop stop-color="#7B0000"/>
<stop offset="1" stop-color="#DB0303"/>
</linearGradient>
</defs>
</svg>
