<svg width="34" height="34" viewBox="0 0 34 34" fill="none" xmlns="http://www.w3.org/2000/svg">
<path d="M12.8885 15.7495H14.4354V17.2964H14.951V12.6558V12.1401H12.8885V12.6558H14.4354V15.2339H12.8885V12.6558H12.3729V17.2964H12.8885V15.7495Z" fill="url(#paint0_linear_437_213)"/>
<path d="M16.4979 15.7495H18.5604V12.6558H18.0448V15.2339H16.4979V12.6558H18.0448V12.1401H15.9823V17.2964H16.4979V15.7495Z" fill="url(#paint1_linear_437_213)"/>
<path d="M21.1385 16.7808H20.6229V12.6558H21.1385V12.1401H19.5917V12.6558H20.1073V16.7808H19.5917V17.2964H21.1385V16.7808Z" fill="url(#paint2_linear_437_213)"/>
<path d="M10.3104 5.14259V7.10764L12.8885 9.17014V10.5933H10.826V12.1401H8.37013L6.99289 10.4535C7.13108 10.2782 7.21667 10.0601 7.21667 9.81982C7.21667 9.25057 6.75467 8.78857 6.18542 8.78857C5.61617 8.78857 5.15417 9.25057 5.15417 9.81982C5.15417 10.3891 5.61617 10.8511 6.18542 10.8511C6.32722 10.8511 6.46283 10.8222 6.58555 10.7701L8.12572 12.6558H10.826V13.687H7.62557L6.70621 14.6064C6.55255 14.5156 6.37621 14.4604 6.18542 14.4604C5.61617 14.4604 5.15417 14.9224 5.15417 15.4917C5.15417 16.0609 5.61617 16.5229 6.18542 16.5229C6.75467 16.5229 7.21667 16.0609 7.21667 15.4917C7.21667 15.3009 7.1615 15.1246 7.07075 14.9709L7.83903 14.2026H10.826V16.7808H7.62557L6.70621 17.7001C6.55255 17.6094 6.37621 17.5542 6.18542 17.5542C5.61617 17.5542 5.15417 18.0162 5.15417 18.5854C5.15417 19.1547 5.61617 19.6167 6.18542 19.6167C6.75467 19.6167 7.21667 19.1547 7.21667 18.5854C7.21667 18.3947 7.1615 18.2183 7.07075 18.0647L7.83903 17.2964H10.826V18.8433H12.8885V19.3589C12.4446 19.4739 12.1151 19.874 12.1151 20.3535C12.1151 20.9228 12.5771 21.3848 13.1464 21.3848C13.7156 21.3848 14.1776 20.9228 14.1776 20.3535C14.1776 19.874 13.8481 19.4739 13.4042 19.3589V18.8433H15.4667V19.3589C15.0227 19.4739 14.6932 19.874 14.6932 20.3535C14.6932 20.9228 15.1552 21.3848 15.7245 21.3848C16.2937 21.3848 16.7557 20.9228 16.7557 20.3535C16.7557 19.874 16.4263 19.4739 15.9823 19.3589V18.8433H18.0448V19.3589C17.6008 19.4739 17.2714 19.874 17.2714 20.3535C17.2714 20.9228 17.7334 21.3848 18.3026 21.3848C18.8719 21.3848 19.3339 20.9228 19.3339 20.3535C19.3339 19.874 19.0044 19.4739 18.5604 19.3589V18.8433H20.6229V19.3589C20.179 19.4739 19.8495 19.874 19.8495 20.3535C19.8495 20.9228 20.3115 21.3848 20.8807 21.3848C21.45 21.3848 21.912 20.9228 21.912 20.3535C21.912 19.874 21.5825 19.4739 21.1385 19.3589V18.8433H23.201V17.2964H26.1881L26.9563 18.0647C26.8656 18.2183 26.8104 18.3947 26.8104 18.5854C26.8104 19.1547 27.2724 19.6167 27.8417 19.6167C28.4109 19.6167 28.8729 19.1547 28.8729 18.5854C28.8729 18.0162 28.4109 17.5542 27.8417 17.5542C27.6509 17.5542 27.4746 17.6094 27.3209 17.7001L26.4015 16.7808H23.201V15.7495H26.3995L27.1817 14.9884C27.3606 15.1395 27.589 15.2339 27.8417 15.2339C28.4109 15.2339 28.8729 14.7719 28.8729 14.2026C28.8729 13.6334 28.4109 13.1714 27.8417 13.1714C27.2724 13.1714 26.8104 13.6334 26.8104 14.2026C26.8104 14.33 26.8367 14.4507 26.879 14.5636L26.1901 15.2339H23.201V12.6558H25.9014L27.441 10.7701C27.5643 10.8222 27.6999 10.8511 27.8417 10.8511C28.4109 10.8511 28.8729 10.3891 28.8729 9.81982C28.8729 9.25057 28.4109 8.78857 27.8417 8.78857C27.2724 8.78857 26.8104 9.25057 26.8104 9.81982C26.8104 10.0601 26.896 10.2782 27.0342 10.4535L25.657 12.1401H23.201V10.5933H21.1385V9.17014L23.7167 7.10764V5.14259C24.1606 5.02761 24.4901 4.62748 24.4901 4.14795C24.4901 3.5787 24.0281 3.1167 23.4589 3.1167C22.8896 3.1167 22.4276 3.5787 22.4276 4.14795C22.4276 4.62748 22.7571 5.02761 23.201 5.14259V6.86014L20.6229 8.92264V10.5933H18.5604V8.14095L21.1385 6.12125V5.14259C21.5825 5.02761 21.912 4.62748 21.912 4.14795C21.912 3.5787 21.45 3.1167 20.8807 3.1167C20.3115 3.1167 19.8495 3.5787 19.8495 4.14795C19.8495 4.62748 20.179 5.02761 20.6229 5.14259V5.87014L18.0448 7.88984V10.5933H15.9823V7.88932L13.4042 5.87014V5.14259C13.8481 5.02761 14.1776 4.62748 14.1776 4.14795C14.1776 3.5787 13.7156 3.1167 13.1464 3.1167C12.5771 3.1167 12.1151 3.5787 12.1151 4.14795C12.1151 4.62748 12.4446 5.02761 12.8885 5.14259V6.12125L15.4667 8.14095V10.5933H13.4042V8.92264L10.826 6.86014V5.14259C11.27 5.02761 11.5995 4.62748 11.5995 4.14795C11.5995 3.5787 11.1375 3.1167 10.5682 3.1167C9.99899 3.1167 9.53699 3.5787 9.53699 4.14795C9.53699 4.62748 9.86647 5.02761 10.3104 5.14259ZM6.18542 10.3354C5.9008 10.3354 5.6698 10.1044 5.6698 9.81982C5.6698 9.5352 5.9008 9.3042 6.18542 9.3042C6.47005 9.3042 6.70105 9.5352 6.70105 9.81982C6.70105 10.1044 6.47005 10.3354 6.18542 10.3354ZM6.18542 16.0073C5.9008 16.0073 5.6698 15.7763 5.6698 15.4917C5.6698 15.2071 5.9008 14.9761 6.18542 14.9761C6.47005 14.9761 6.70105 15.2071 6.70105 15.4917C6.70105 15.7763 6.47005 16.0073 6.18542 16.0073ZM6.18542 19.1011C5.9008 19.1011 5.6698 18.8701 5.6698 18.5854C5.6698 18.3008 5.9008 18.0698 6.18542 18.0698C6.47005 18.0698 6.70105 18.3008 6.70105 18.5854C6.70105 18.8701 6.47005 19.1011 6.18542 19.1011ZM27.8417 18.0698C28.1263 18.0698 28.3573 18.3008 28.3573 18.5854C28.3573 18.8701 28.1263 19.1011 27.8417 19.1011C27.557 19.1011 27.326 18.8701 27.326 18.5854C27.326 18.3008 27.557 18.0698 27.8417 18.0698ZM27.8417 13.687C28.1263 13.687 28.3573 13.918 28.3573 14.2026C28.3573 14.4873 28.1263 14.7183 27.8417 14.7183C27.557 14.7183 27.326 14.4873 27.326 14.2026C27.326 13.918 27.557 13.687 27.8417 13.687ZM27.8417 9.3042C28.1263 9.3042 28.3573 9.5352 28.3573 9.81982C28.3573 10.1044 28.1263 10.3354 27.8417 10.3354C27.557 10.3354 27.326 10.1044 27.326 9.81982C27.326 9.5352 27.557 9.3042 27.8417 9.3042ZM22.9432 4.14795C22.9432 3.86332 23.1742 3.63232 23.4589 3.63232C23.7435 3.63232 23.9745 3.86332 23.9745 4.14795C23.9745 4.43257 23.7435 4.66357 23.4589 4.66357C23.1742 4.66357 22.9432 4.43257 22.9432 4.14795ZM20.3651 4.14795C20.3651 3.86332 20.5961 3.63232 20.8807 3.63232C21.1654 3.63232 21.3964 3.86332 21.3964 4.14795C21.3964 4.43257 21.1654 4.66357 20.8807 4.66357C20.5961 4.66357 20.3651 4.43257 20.3651 4.14795ZM12.6307 4.14795C12.6307 3.86332 12.8617 3.63232 13.1464 3.63232C13.431 3.63232 13.662 3.86332 13.662 4.14795C13.662 4.43257 13.431 4.66357 13.1464 4.66357C12.8617 4.66357 12.6307 4.43257 12.6307 4.14795ZM13.662 20.3535C13.662 20.6382 13.431 20.8692 13.1464 20.8692C12.8617 20.8692 12.6307 20.6382 12.6307 20.3535C12.6307 20.0689 12.8617 19.8379 13.1464 19.8379C13.431 19.8379 13.662 20.0689 13.662 20.3535ZM16.2401 20.3535C16.2401 20.6382 16.0091 20.8692 15.7245 20.8692C15.4399 20.8692 15.2089 20.6382 15.2089 20.3535C15.2089 20.0689 15.4399 19.8379 15.7245 19.8379C16.0091 19.8379 16.2401 20.0689 16.2401 20.3535ZM18.8182 20.3535C18.8182 20.6382 18.5872 20.8692 18.3026 20.8692C18.018 20.8692 17.787 20.6382 17.787 20.3535C17.787 20.0689 18.018 19.8379 18.3026 19.8379C18.5872 19.8379 18.8182 20.0689 18.8182 20.3535ZM21.3964 20.3535C21.3964 20.6382 21.1654 20.8692 20.8807 20.8692C20.5961 20.8692 20.3651 20.6382 20.3651 20.3535C20.3651 20.0689 20.5961 19.8379 20.8807 19.8379C21.1654 19.8379 21.3964 20.0689 21.3964 20.3535ZM22.6854 11.1089V12.1401V12.6558V15.2339V15.7495V16.7808V17.2964V18.3276H11.3417V17.2964V16.7808V14.2026V13.687V12.6558V12.1401V11.1089H22.6854ZM10.5682 3.63232C10.8529 3.63232 11.0839 3.86332 11.0839 4.14795C11.0839 4.43257 10.8529 4.66357 10.5682 4.66357C10.2836 4.66357 10.0526 4.43257 10.0526 4.14795C10.0526 3.86332 10.2836 3.63232 10.5682 3.63232Z" fill="url(#paint3_linear_437_213)"/>
<path d="M29.9042 5.95264H24.2323V6.46826H29.9042C30.1883 6.46826 30.4198 6.69978 30.4198 6.98389V23.4839H3.6073V6.98389C3.6073 6.69978 3.83882 6.46826 4.12292 6.46826H9.7948V5.95264H4.12292C3.55574 5.95264 3.09167 6.4167 3.09167 6.98389V23.4839V23.6324V25.0308C3.09167 25.5979 3.55574 26.062 4.12292 26.062H13.7723L13.0355 28.6401H11.3417C10.7724 28.6401 10.3104 29.1021 10.3104 29.6714V30.187H23.7167V29.6714C23.7167 29.1021 23.2547 28.6401 22.6854 28.6401H20.9911L20.2543 26.062H29.9042C30.4714 26.062 30.9354 25.5979 30.9354 25.0308V23.9093V23.4839V6.98389C30.9354 6.4167 30.4714 5.95264 29.9042 5.95264ZM21.1385 29.1558H22.6854C22.9695 29.1558 23.201 29.3873 23.201 29.6714H10.826C10.826 29.3873 11.0576 29.1558 11.3417 29.1558H12.8885H21.1385ZM20.4548 28.6401H13.5723L14.3091 26.062H19.7185L20.4548 28.6401ZM30.4198 25.0308C30.4198 25.3149 30.1883 25.5464 29.9042 25.5464H20.1073H13.9198H4.12292C3.83882 25.5464 3.6073 25.3149 3.6073 25.0308V23.9995H30.4198V25.0308Z" fill="url(#paint4_linear_437_213)"/>
<path d="M11.3417 5.95264V6.46826H12.4951L12.3729 6.37236V5.95264H11.3417Z" fill="url(#paint5_linear_437_213)"/>
<path d="M19.0229 6.46826L19.6814 5.95264H14.3457L15.0042 6.46826H19.0229Z" fill="url(#paint6_linear_437_213)"/>
<path d="M22.6854 5.95264H21.6542V6.37236L21.532 6.46826H22.6854V5.95264Z" fill="url(#paint7_linear_437_213)"/>
<path d="M17.7066 7.49951L18.365 6.98389H15.6621L16.3206 7.49951H17.7066Z" fill="url(#paint8_linear_437_213)"/>
<path d="M4.12292 6.98389V22.4526H29.9042V6.98389H24.2323V7.35565L24.0523 7.49951H29.3885V21.937H4.63855V7.49951H9.97475L9.7948 7.35565V6.98389H4.12292Z" fill="url(#paint9_linear_437_213)"/>
<path d="M13.8121 7.49951L13.1536 6.98389H11.8063L12.4508 7.49951H13.8121Z" fill="url(#paint10_linear_437_213)"/>
<path d="M20.2151 7.49951H21.5763L22.2209 6.98389H20.8735L20.2151 7.49951Z" fill="url(#paint11_linear_437_213)"/>
<defs>
<linearGradient id="paint0_linear_437_213" x1="12.3729" y1="14.7183" x2="14.951" y2="14.7183" gradientUnits="userSpaceOnUse">
<stop stop-color="#7B0000"/>
<stop offset="1" stop-color="#DB0303"/>
</linearGradient>
<linearGradient id="paint1_linear_437_213" x1="15.9823" y1="14.7183" x2="18.5604" y2="14.7183" gradientUnits="userSpaceOnUse">
<stop stop-color="#7B0000"/>
<stop offset="1" stop-color="#DB0303"/>
</linearGradient>
<linearGradient id="paint2_linear_437_213" x1="19.5917" y1="14.7183" x2="21.1385" y2="14.7183" gradientUnits="userSpaceOnUse">
<stop stop-color="#7B0000"/>
<stop offset="1" stop-color="#DB0303"/>
</linearGradient>
<linearGradient id="paint3_linear_437_213" x1="5.15417" y1="12.2507" x2="28.8729" y2="12.2507" gradientUnits="userSpaceOnUse">
<stop stop-color="#7B0000"/>
<stop offset="1" stop-color="#DB0303"/>
</linearGradient>
<linearGradient id="paint4_linear_437_213" x1="3.09167" y1="18.0698" x2="30.9354" y2="18.0698" gradientUnits="userSpaceOnUse">
<stop stop-color="#7B0000"/>
<stop offset="1" stop-color="#DB0303"/>
</linearGradient>
<linearGradient id="paint5_linear_437_213" x1="11.3417" y1="6.21045" x2="12.4951" y2="6.21045" gradientUnits="userSpaceOnUse">
<stop stop-color="#7B0000"/>
<stop offset="1" stop-color="#DB0303"/>
</linearGradient>
<linearGradient id="paint6_linear_437_213" x1="14.3457" y1="6.21045" x2="19.6814" y2="6.21045" gradientUnits="userSpaceOnUse">
<stop stop-color="#7B0000"/>
<stop offset="1" stop-color="#DB0303"/>
</linearGradient>
<linearGradient id="paint7_linear_437_213" x1="21.532" y1="6.21045" x2="22.6854" y2="6.21045" gradientUnits="userSpaceOnUse">
<stop stop-color="#7B0000"/>
<stop offset="1" stop-color="#DB0303"/>
</linearGradient>
<linearGradient id="paint8_linear_437_213" x1="15.6621" y1="7.2417" x2="18.365" y2="7.2417" gradientUnits="userSpaceOnUse">
<stop stop-color="#7B0000"/>
<stop offset="1" stop-color="#DB0303"/>
</linearGradient>
<linearGradient id="paint9_linear_437_213" x1="4.12292" y1="14.7183" x2="29.9042" y2="14.7183" gradientUnits="userSpaceOnUse">
<stop stop-color="#7B0000"/>
<stop offset="1" stop-color="#DB0303"/>
</linearGradient>
<linearGradient id="paint10_linear_437_213" x1="11.8063" y1="7.2417" x2="13.8121" y2="7.2417" gradientUnits="userSpaceOnUse">
<stop stop-color="#7B0000"/>
<stop offset="1" stop-color="#DB0303"/>
</linearGradient>
<linearGradient id="paint11_linear_437_213" x1="20.2151" y1="7.2417" x2="22.2209" y2="7.2417" gradientUnits="userSpaceOnUse">
<stop stop-color="#7B0000"/>
<stop offset="1" stop-color="#DB0303"/>
</linearGradient>
</defs>
</svg>
