<svg width="34" height="34" viewBox="0 0 34 34" fill="none" xmlns="http://www.w3.org/2000/svg">
<path d="M30.4198 8.21851H28.8729V3.57788C28.8729 2.1563 27.7164 0.999756 26.2948 0.999756H7.7323C6.31072 0.999756 5.15417 2.1563 5.15417 3.57788V8.21851H3.6073C2.18572 8.21851 1.02917 9.37505 1.02917 10.7966V27.2966C1.02917 28.7182 2.18572 29.8748 3.6073 29.8748H10.3104V31.9373H8.24792V32.9685H25.7792V31.9373H23.7167V29.8748H30.4198C31.8414 29.8748 32.9979 28.7182 32.9979 27.2966V10.7966C32.9979 9.37505 31.8414 8.21851 30.4198 8.21851ZM6.18542 3.57788C6.18542 2.72504 6.87946 2.03101 7.7323 2.03101H26.2948C27.1476 2.03101 27.8417 2.72504 27.8417 3.57788V16.9841C27.8417 17.837 27.1476 18.531 26.2948 18.531H19.076V21.2298L14.5783 18.531H7.7323C6.87946 18.531 6.18542 17.837 6.18542 16.9841V3.57788ZM3.6073 9.24976H5.15417V16.9841C5.15417 18.4057 6.31072 19.5623 7.7323 19.5623H14.2926L20.1073 23.051V19.5623H26.2948C27.7164 19.5623 28.8729 18.4057 28.8729 16.9841V9.24976H30.4198C31.2726 9.24976 31.9667 9.94379 31.9667 10.7966V24.7185H2.06042V10.7966C2.06042 9.94379 2.75446 9.24976 3.6073 9.24976ZM22.6854 31.9373H11.3417V29.8748H22.6854V31.9373ZM30.4198 28.8435H3.6073C2.75446 28.8435 2.06042 28.1495 2.06042 27.2966V25.7498H31.9667V27.2966C31.9667 28.1495 31.2726 28.8435 30.4198 28.8435Z" fill="url(#paint0_linear_436_131)"/>
<path d="M14.4354 26.781H13.4042V27.8123H14.4354V26.781Z" fill="url(#paint1_linear_436_131)"/>
<path d="M18.5604 26.781H15.4667V27.8123H18.5604V26.781Z" fill="url(#paint2_linear_436_131)"/>
<path d="M20.6229 26.781H19.5917V27.8123H20.6229V26.781Z" fill="url(#paint3_linear_436_131)"/>
<path d="M10.826 15.4373H13.4042V9.24976H12.3729V8.73413C12.3729 6.1756 14.4545 4.09351 17.0135 4.09351C19.5726 4.09351 21.6542 6.1756 21.6542 8.73413V9.24976H20.6229V15.4373H21.6542V15.9529C21.6542 16.237 21.4232 16.4685 21.1385 16.4685H18.4656C18.2521 15.8699 17.6849 15.4373 17.0135 15.4373C16.1607 15.4373 15.4667 16.1313 15.4667 16.9841C15.4667 17.837 16.1607 18.531 17.0135 18.531C17.6849 18.531 18.2521 18.0984 18.4656 17.4998H21.1385C21.9914 17.4998 22.6854 16.8057 22.6854 15.9529V15.4373H23.201C24.6226 15.4373 25.7792 14.2807 25.7792 12.8591V11.8279C25.7792 10.4063 24.6226 9.24976 23.201 9.24976H22.6854V8.73413C22.6854 5.60687 20.1408 3.06226 17.0135 3.06226C13.8863 3.06226 11.3417 5.60687 11.3417 8.73413V9.24976H10.826C9.40447 9.24976 8.24792 10.4063 8.24792 11.8279V12.8591C8.24792 14.2807 9.40447 15.4373 10.826 15.4373ZM17.0135 17.4998C16.7289 17.4998 16.4979 17.2682 16.4979 16.9841C16.4979 16.7 16.7289 16.4685 17.0135 16.4685C17.2982 16.4685 17.5292 16.7 17.5292 16.9841C17.5292 17.2682 17.2982 17.4998 17.0135 17.4998ZM24.7479 11.8279V12.8591C24.7479 13.5305 24.3153 14.0977 23.7167 14.3111V11.3123H22.6854V14.406H21.6542V10.281H23.201C24.0539 10.281 24.7479 10.975 24.7479 11.8279ZM9.27917 11.8279C9.27917 10.975 9.97321 10.281 10.826 10.281H12.3729V14.406H11.3417V11.3123H10.3104V14.3111C9.71178 14.0977 9.27917 13.5305 9.27917 12.8591V11.8279Z" fill="url(#paint4_linear_436_131)"/>
<path d="M11.3417 22.656H10.3104V23.6873H11.3417V22.656Z" fill="url(#paint5_linear_436_131)"/>
<path d="M9.27917 22.656H3.09167V23.6873H9.27917V22.656Z" fill="url(#paint6_linear_436_131)"/>
<path d="M11.3417 20.5935H3.09167V21.6248H11.3417V20.5935Z" fill="url(#paint7_linear_436_131)"/>
<path d="M30.9354 22.656H29.9042V23.6873H30.9354V22.656Z" fill="url(#paint8_linear_436_131)"/>
<path d="M28.8729 22.656H22.6854V23.6873H28.8729V22.656Z" fill="url(#paint9_linear_436_131)"/>
<path d="M30.9354 20.5935H22.6854V21.6248H30.9354V20.5935Z" fill="url(#paint10_linear_436_131)"/>
<defs>
<linearGradient id="paint0_linear_436_131" x1="1.02917" y1="16.9841" x2="32.9979" y2="16.9841" gradientUnits="userSpaceOnUse">
<stop stop-color="#7B0000"/>
<stop offset="1" stop-color="#DB0303"/>
</linearGradient>
<linearGradient id="paint1_linear_436_131" x1="13.4042" y1="27.2966" x2="14.4354" y2="27.2966" gradientUnits="userSpaceOnUse">
<stop stop-color="#7B0000"/>
<stop offset="1" stop-color="#DB0303"/>
</linearGradient>
<linearGradient id="paint2_linear_436_131" x1="15.4667" y1="27.2966" x2="18.5604" y2="27.2966" gradientUnits="userSpaceOnUse">
<stop stop-color="#7B0000"/>
<stop offset="1" stop-color="#DB0303"/>
</linearGradient>
<linearGradient id="paint3_linear_436_131" x1="19.5917" y1="27.2966" x2="20.6229" y2="27.2966" gradientUnits="userSpaceOnUse">
<stop stop-color="#7B0000"/>
<stop offset="1" stop-color="#DB0303"/>
</linearGradient>
<linearGradient id="paint4_linear_436_131" x1="8.24792" y1="10.7966" x2="25.7792" y2="10.7966" gradientUnits="userSpaceOnUse">
<stop stop-color="#7B0000"/>
<stop offset="1" stop-color="#DB0303"/>
</linearGradient>
<linearGradient id="paint5_linear_436_131" x1="10.3104" y1="23.1716" x2="11.3417" y2="23.1716" gradientUnits="userSpaceOnUse">
<stop stop-color="#7B0000"/>
<stop offset="1" stop-color="#DB0303"/>
</linearGradient>
<linearGradient id="paint6_linear_436_131" x1="3.09167" y1="23.1716" x2="9.27917" y2="23.1716" gradientUnits="userSpaceOnUse">
<stop stop-color="#7B0000"/>
<stop offset="1" stop-color="#DB0303"/>
</linearGradient>
<linearGradient id="paint7_linear_436_131" x1="3.09167" y1="21.1091" x2="11.3417" y2="21.1091" gradientUnits="userSpaceOnUse">
<stop stop-color="#7B0000"/>
<stop offset="1" stop-color="#DB0303"/>
</linearGradient>
<linearGradient id="paint8_linear_436_131" x1="29.9042" y1="23.1716" x2="30.9354" y2="23.1716" gradientUnits="userSpaceOnUse">
<stop stop-color="#7B0000"/>
<stop offset="1" stop-color="#DB0303"/>
</linearGradient>
<linearGradient id="paint9_linear_436_131" x1="22.6854" y1="23.1716" x2="28.8729" y2="23.1716" gradientUnits="userSpaceOnUse">
<stop stop-color="#7B0000"/>
<stop offset="1" stop-color="#DB0303"/>
</linearGradient>
<linearGradient id="paint10_linear_436_131" x1="22.6854" y1="21.1091" x2="30.9354" y2="21.1091" gradientUnits="userSpaceOnUse">
<stop stop-color="#7B0000"/>
<stop offset="1" stop-color="#DB0303"/>
</linearGradient>
</defs>
</svg>
