<svg width="39" height="39" viewBox="0 0 39 39" fill="none" xmlns="http://www.w3.org/2000/svg">
<path d="M26 34.125V30.875C26 29.1511 25.3152 27.4978 24.0962 26.2788C22.8772 25.0598 21.2239 24.375 19.5 24.375H8.125C6.40109 24.375 4.74779 25.0598 3.52881 26.2788C2.30982 27.4978 1.625 29.1511 1.625 30.875V34.125" stroke="white" stroke-width="2" stroke-linecap="round" stroke-linejoin="round"/>
<path d="M13.8125 17.875C17.4024 17.875 20.3125 14.9649 20.3125 11.375C20.3125 7.78515 17.4024 4.875 13.8125 4.875C10.2226 4.875 7.3125 7.78515 7.3125 11.375C7.3125 14.9649 10.2226 17.875 13.8125 17.875Z" stroke="white" stroke-width="2" stroke-linecap="round" stroke-linejoin="round"/>
<path d="M27.625 17.875L30.875 21.125L37.375 14.625" stroke="white" stroke-width="2" stroke-linecap="round" stroke-linejoin="round"/>
</svg>
